<svg width="24" height="23" viewBox="0 0 24 23" fill="none" xmlns="http://www.w3.org/2000/svg">
<path fill-rule="evenodd" clip-rule="evenodd" d="M0.761551 1.25C0.761551 1.05109 0.841023 0.860322 0.982483 0.71967C1.12394 0.579018 1.31581 0.5 1.51586 0.5H3.77879C3.94705 0.500046 4.11046 0.556026 4.24304 0.659037C4.37562 0.762048 4.46975 0.906176 4.51047 1.0685L5.12146 3.5H22.6365C22.7481 3.50007 22.8583 3.52474 22.9591 3.57223C23.0599 3.61972 23.1488 3.68885 23.2195 3.77465C23.2902 3.86044 23.3409 3.96076 23.3679 4.06838C23.395 4.176 23.3976 4.28823 23.3758 4.397L21.8671 11.897C21.8341 12.0605 21.7472 12.2085 21.6202 12.3174C21.4931 12.4264 21.3332 12.4901 21.1656 12.4985L6.98913 13.2065L7.42211 15.5H20.3736C20.5737 15.5 20.7655 15.579 20.907 15.7197C21.0485 15.8603 21.1279 16.0511 21.1279 16.25C21.1279 16.4489 21.0485 16.6397 20.907 16.7803C20.7655 16.921 20.5737 17 20.3736 17H6.79603C6.62017 16.9998 6.4499 16.9386 6.31465 16.8268C6.17939 16.7151 6.08766 16.5599 6.0553 16.388L3.79388 4.4105L3.19043 2H1.51586C1.31581 2 1.12394 1.92098 0.982483 1.78033C0.841023 1.63968 0.761551 1.44891 0.761551 1.25ZM5.44129 5L6.70853 11.7185L20.5034 11.03L21.7163 5H5.44129ZM8.30465 17C7.50443 17 6.73698 17.3161 6.17114 17.8787C5.6053 18.4413 5.28741 19.2044 5.28741 20C5.28741 20.7956 5.6053 21.5587 6.17114 22.1213C6.73698 22.6839 7.50443 23 8.30465 23C9.10487 23 9.87232 22.6839 10.4382 22.1213C11.004 21.5587 11.3219 20.7956 11.3219 20C11.3219 19.2044 11.004 18.4413 10.4382 17.8787C9.87232 17.3161 9.10487 17 8.30465 17ZM18.865 17C18.0648 17 17.2973 17.3161 16.7315 17.8787C16.1656 18.4413 15.8478 19.2044 15.8478 20C15.8478 20.7956 16.1656 21.5587 16.7315 22.1213C17.2973 22.6839 18.0648 23 18.865 23C19.6652 23 20.4327 22.6839 20.9985 22.1213C21.5643 21.5587 21.8822 20.7956 21.8822 20C21.8822 19.2044 21.5643 18.4413 20.9985 17.8787C20.4327 17.3161 19.6652 17 18.865 17ZM8.30465 18.5C7.90454 18.5 7.52082 18.658 7.2379 18.9393C6.95498 19.2206 6.79603 19.6022 6.79603 20C6.79603 20.3978 6.95498 20.7794 7.2379 21.0607C7.52082 21.342 7.90454 21.5 8.30465 21.5C8.70476 21.5 9.08849 21.342 9.37141 21.0607C9.65433 20.7794 9.81327 20.3978 9.81327 20C9.81327 19.6022 9.65433 19.2206 9.37141 18.9393C9.08849 18.658 8.70476 18.5 8.30465 18.5ZM18.865 18.5C18.4649 18.5 18.0812 18.658 17.7982 18.9393C17.5153 19.2206 17.3564 19.6022 17.3564 20C17.3564 20.3978 17.5153 20.7794 17.7982 21.0607C18.0812 21.342 18.4649 21.5 18.865 21.5C19.2651 21.5 19.6488 21.342 19.9317 21.0607C20.2147 20.7794 20.3736 20.3978 20.3736 20C20.3736 19.6022 20.2147 19.2206 19.9317 18.9393C19.6488 18.658 19.2651 18.5 18.865 18.5Z" fill="white"/>
</svg>
