<svg width="6" height="10" viewBox="0 0 6 10" fill="none" xmlns="http://www.w3.org/2000/svg">
<path fill-rule="evenodd" clip-rule="evenodd" d="M0.903698 1.02882C0.932727 0.999718 0.967211 0.976629 1.00518 0.960875C1.04314 0.945121 1.08384 0.937012 1.12495 0.937012C1.16605 0.937012 1.20675 0.945121 1.24472 0.960875C1.28268 0.976629 1.31717 0.999718 1.3462 1.02882L5.0962 4.77882C5.1253 4.80785 5.14839 4.84233 5.16414 4.8803C5.1799 4.91827 5.188 4.95897 5.188 5.00007C5.188 5.04118 5.1799 5.08188 5.16414 5.11984C5.14839 5.15781 5.1253 5.19229 5.0962 5.22132L1.3462 8.97132C1.28752 9.03 1.20793 9.06297 1.12495 9.06297C1.04196 9.06297 0.962377 9.03 0.903698 8.97132C0.845019 8.91264 0.812053 8.83306 0.812053 8.75007C0.812053 8.66709 0.845019 8.5875 0.903698 8.52882L4.43307 5.00007L0.903698 1.47132C0.874596 1.44229 0.851507 1.40781 0.835753 1.36984C0.819999 1.33188 0.81189 1.29117 0.81189 1.25007C0.81189 1.20897 0.819999 1.16827 0.835753 1.1303C0.851507 1.09233 0.874596 1.05785 0.903698 1.02882Z" fill="black"/>
</svg>
