<svg width="27" height="26" viewBox="0 0 27 26" fill="none" xmlns="http://www.w3.org/2000/svg">
<path d="M21.6667 20.5C22.374 20.5 23.0522 20.7634 23.5523 21.2322C24.0524 21.7011 24.3334 22.337 24.3334 23C24.3334 23.663 24.0524 24.2989 23.5523 24.7678C23.0522 25.2366 22.374 25.5 21.6667 25.5C20.9595 25.5 20.2812 25.2366 19.7811 24.7678C19.281 24.2989 19 23.663 19 23C19 21.6125 20.1867 20.5 21.6667 20.5ZM0.333374 0.5H4.69337L5.94671 3H25.6667C26.0203 3 26.3595 3.1317 26.6095 3.36612C26.8596 3.60054 27 3.91848 27 4.25C27 4.4625 26.9334 4.675 26.84 4.875L22.0667 12.9625C21.6134 13.725 20.7334 14.25 19.7334 14.25H9.80004L8.60004 16.2875L8.56004 16.4375C8.56004 16.5204 8.59516 16.5999 8.65767 16.6585C8.72018 16.7171 8.80497 16.75 8.89337 16.75H24.3334V19.25H8.33337C7.62613 19.25 6.94785 18.9866 6.44776 18.5178C5.94766 18.0489 5.66671 17.413 5.66671 16.75C5.66671 16.3125 5.78671 15.9 5.98671 15.55L7.80004 12.4875L3.00004 3H0.333374V0.5ZM8.33337 20.5C9.04062 20.5 9.71889 20.7634 10.219 21.2322C10.7191 21.7011 11 22.337 11 23C11 23.663 10.7191 24.2989 10.219 24.7678C9.71889 25.2366 9.04062 25.5 8.33337 25.5C7.62613 25.5 6.94785 25.2366 6.44776 24.7678C5.94766 24.2989 5.66671 23.663 5.66671 23C5.66671 21.6125 6.85337 20.5 8.33337 20.5ZM20.3334 11.75L24.04 5.5H7.18671L10.3334 11.75H20.3334Z" fill="black"/>
</svg>
