<svg width="28" height="28" viewBox="0 0 28 28" fill="none" xmlns="http://www.w3.org/2000/svg">
<path d="M14 26C20.6276 26 26 20.6276 26 14C26 7.3724 20.6276 2 14 2C7.3724 2 2 7.3724 2 14C2 20.6276 7.3724 26 14 26Z" stroke="#E84B3A" stroke-width="3" stroke-linecap="round" stroke-linejoin="round"/>
<path d="M17.6004 9.79994C16.7784 8.97794 15.3312 8.40674 14.0004 8.37074M14.0004 8.37074C12.4164 8.32754 11.0004 9.04394 11.0004 10.9999C11.0004 14.5999 17.6004 12.7999 17.6004 16.3999C17.6004 18.4531 15.8436 19.3351 14.0004 19.2691M14.0004 8.37074V6.19994M10.4004 17.5999C11.1732 18.6319 12.612 19.2199 14.0004 19.2691M14.0004 19.2691V21.7999" stroke="#E84B3A" stroke-width="3" stroke-linecap="round" stroke-linejoin="round"/>
</svg>
