<svg width="35" height="24" viewBox="0 0 35 24" fill="none" xmlns="http://www.w3.org/2000/svg">
<path d="M0 1.33333C0 0.979711 0.180495 0.640573 0.501778 0.390524C0.82306 0.140476 1.25881 0 1.71318 0H32.5503C33.0047 0 33.4405 0.140476 33.7617 0.390524C34.083 0.640573 34.2635 0.979711 34.2635 1.33333V8.66667C33.1276 8.66667 32.0382 9.01786 31.235 9.64298C30.4318 10.2681 29.9806 11.1159 29.9806 12C29.9806 12.8841 30.4318 13.7319 31.235 14.357C32.0382 14.9821 33.1276 15.3333 34.2635 15.3333V22.6667C34.2635 23.0203 34.083 23.3594 33.7617 23.6095C33.4405 23.8595 33.0047 24 32.5503 24H1.71318C1.25881 24 0.82306 23.8595 0.501778 23.6095C0.180495 23.3594 0 23.0203 0 22.6667V1.33333ZM10.4247 21.3333C10.6013 20.9427 10.9293 20.6043 11.3635 20.3649C11.7977 20.1256 12.3167 19.997 12.8488 19.997C13.3809 19.997 13.8999 20.1256 14.3341 20.3649C14.7683 20.6043 15.0964 20.9427 15.273 21.3333H30.8372V17.376C29.5502 16.8796 28.467 16.1133 27.7098 15.1634C26.9525 14.2135 26.5512 13.1179 26.5512 12C26.5512 10.8821 26.9525 9.78649 27.7098 8.83661C28.467 7.88673 29.5502 7.12039 30.8372 6.624V2.66667H15.273C15.0964 3.05733 14.7683 3.39569 14.3341 3.63506C13.8999 3.87442 13.3809 4.00297 12.8488 4.00297C12.3167 4.00297 11.7977 3.87442 11.3635 3.63506C10.9293 3.39569 10.6013 3.05733 10.4247 2.66667H3.42635V21.3333H10.4247ZM12.8488 10.6667C12.1673 10.6667 11.5136 10.456 11.0317 10.0809C10.5498 9.70581 10.2791 9.1971 10.2791 8.66667C10.2791 8.13623 10.5498 7.62753 11.0317 7.25245C11.5136 6.87738 12.1673 6.66667 12.8488 6.66667C13.5304 6.66667 14.184 6.87738 14.6659 7.25245C15.1478 7.62753 15.4186 8.13623 15.4186 8.66667C15.4186 9.1971 15.1478 9.70581 14.6659 10.0809C14.184 10.456 13.5304 10.6667 12.8488 10.6667ZM12.8488 17.3333C12.1673 17.3333 11.5136 17.1226 11.0317 16.7475C10.5498 16.3725 10.2791 15.8638 10.2791 15.3333C10.2791 14.8029 10.5498 14.2942 11.0317 13.9191C11.5136 13.544 12.1673 13.3333 12.8488 13.3333C13.5304 13.3333 14.184 13.544 14.6659 13.9191C15.1478 14.2942 15.4186 14.8029 15.4186 15.3333C15.4186 15.8638 15.1478 16.3725 14.6659 16.7475C14.184 17.1226 13.5304 17.3333 12.8488 17.3333Z" fill="#E84B3A"/>
</svg>
