<svg width="501" height="349" viewBox="0 0 501 349" fill="none" xmlns="http://www.w3.org/2000/svg">
<path opacity="0.23" d="M386.294 93.714C409.163 40.7737 363.883 0 277.067 0C182.226 0 73.7332 48.6583 34.7406 108.681C14.1002 140.454 17.0736 169.041 38.5095 188.913C28.6814 198.06 20.4406 207.582 14.087 217.363C-31.5391 287.597 37.3194 344.533 167.887 344.533C298.454 344.533 441.287 287.597 486.913 217.363C525.864 157.405 481.378 107.14 386.294 93.714Z" fill="url(#paint0_linear_10_1590)"/>
<path d="M438.086 73.1495H67.9937C56.1639 73.1495 46.5739 82.4906 46.5739 94.0133V111.797H459.506V94.0133C459.506 82.4906 449.916 73.1495 438.086 73.1495Z" fill="url(#paint1_linear_10_1590)"/>
<ellipse cx="61.3248" cy="94.7747" rx="4.12127" ry="4.01427" fill="white"/>
<ellipse cx="77.6536" cy="94.7747" rx="4.12127" ry="4.01427" fill="white"/>
<ellipse cx="93.9825" cy="94.7747" rx="4.12127" ry="4.01427" fill="white"/>
<rect x="81.3975" y="140.832" width="104.41" height="136.392" rx="7.84336" fill="white"/>
<rect x="90.3938" y="152.037" width="86.4168" height="76.3858" rx="4.68238" fill="url(#paint2_linear_10_1590)"/>
<rect x="96.7852" y="242.071" width="71.1322" height="7.74661" rx="2.65354" fill="url(#paint3_linear_10_1590)"/>
<rect x="96.7852" y="253.91" width="51.7348" height="7.74661" rx="2.65354" fill="url(#paint4_linear_10_1590)"/>
<path opacity="0.56" d="M113.403 174.434C110.639 187.497 109.96 201.17 109.838 215.008H118.155C118.373 206.639 118.256 197.835 120.135 191.63L120.977 192.015L120.692 200.656L126.201 201.472V203.381L120.629 202.556L120.436 208.44C122.877 210.585 127.544 211.74 132.384 211.907V168.182C130.701 168.276 129.014 168.113 127.382 167.699C131.011 166.179 136.284 166.421 138.473 167.119C137.504 167.943 136.101 168.292 134.537 168.472V211.914C139.479 211.783 144.28 210.625 146.768 208.44L146.575 202.564L141.065 203.381V201.472L146.512 200.665L146.227 192.015L147.069 191.63C148.948 197.836 148.834 206.639 149.05 215.008H157.366C157.248 201.17 156.568 187.497 153.803 174.434C150.403 172.526 146.411 170.953 141.718 169.779V166.611C136.043 165.102 130.492 165.028 125.082 166.611V169.884C120.566 171.045 116.707 172.581 113.403 174.434H113.403Z" fill="url(#paint5_linear_10_1590)"/>
<rect x="339.627" y="140.832" width="104.41" height="136.392" rx="7.84336" fill="white"/>
<rect x="348.624" y="152.037" width="86.4168" height="76.3858" rx="4.68238" fill="url(#paint6_linear_10_1590)"/>
<rect x="355.015" y="242.071" width="71.1322" height="7.74661" rx="2.65354" fill="url(#paint7_linear_10_1590)"/>
<rect x="355.015" y="253.91" width="51.7348" height="7.74661" rx="2.65354" fill="url(#paint8_linear_10_1590)"/>
<path opacity="0.44" d="M405.024 178.507V172.365H393.344V186.988C393.342 187.8 392.665 188.458 391.832 188.458C390.999 188.458 390.323 187.8 390.32 186.988V172.365H378.641V178.618C378.641 183.465 375.763 187.874 371.26 189.923L368.973 190.965V214.636C368.973 215.078 369.153 215.502 369.473 215.815C369.794 216.127 370.228 216.303 370.681 216.303H386.147C386.958 216.303 387.657 215.747 387.82 214.972L390.997 199.908H392.666L395.843 214.972C396.006 215.747 396.706 216.303 397.517 216.303H412.982C413.435 216.303 413.87 216.128 414.19 215.815C414.511 215.502 414.691 215.078 414.691 214.636V190.855L412.403 189.813C407.901 187.764 405.023 183.355 405.024 178.507Z" fill="url(#paint9_linear_10_1590)"/>
<path opacity="0.44" d="M408.181 172.365V178.507C408.188 182.156 410.353 185.472 413.738 187.023L414.692 187.457V172.365L408.181 172.365Z" fill="url(#paint10_linear_10_1590)"/>
<path opacity="0.44" d="M375.484 178.619V172.365H368.972V187.567L369.926 187.133C373.311 185.583 375.476 182.267 375.484 178.619Z" fill="url(#paint11_linear_10_1590)"/>
<path opacity="0.44" d="M414.485 166.367C414.485 165.146 413.471 164.156 412.22 164.156H371.444C370.193 164.156 369.179 165.146 369.179 166.367V170.118H414.485V166.367Z" fill="url(#paint12_linear_10_1590)"/>
<rect x="210.512" y="140.832" width="104.41" height="136.392" rx="7.84336" fill="white"/>
<rect x="219.509" y="152.037" width="86.4168" height="76.3858" rx="4.68238" fill="url(#paint13_linear_10_1590)"/>
<rect x="225.9" y="242.071" width="71.1322" height="7.74661" rx="2.65354" fill="url(#paint14_linear_10_1590)"/>
<rect x="225.9" y="253.91" width="51.7348" height="7.74661" rx="2.65354" fill="url(#paint15_linear_10_1590)"/>
<path opacity="0.57" d="M286.333 215.566L279.98 170.602C279.851 169.692 278.931 169.008 277.838 169.008H247.596C246.503 169.008 245.583 169.692 245.454 170.602L239.101 215.565C238.949 216.64 239.951 217.585 241.242 217.585H257.884C259.018 217.585 259.958 216.849 260.035 215.901L262.25 188.661C262.294 188.128 263.23 188.129 263.272 188.662L265.404 215.897C265.478 216.847 266.42 217.586 267.556 217.586H284.192C285.483 217.586 286.485 216.641 286.333 215.566Z" fill="#FE7A80"/>
<path opacity="0.57" d="M247.787 165.992H277.509C278.391 165.992 279.107 165.294 279.107 164.433C279.107 163.572 278.391 162.874 277.509 162.874H247.787C246.905 162.874 246.189 163.572 246.189 164.433C246.189 165.294 246.905 165.992 247.787 165.992Z" fill="#FE7A80"/>
<path d="M348.112 287.817H378.319C379.144 287.815 379.929 287.473 380.481 286.875C381.033 286.278 381.3 285.481 381.217 284.68C380.866 281.113 379.907 277.629 378.38 274.37C378.04 273.64 377.399 273.084 376.617 272.839C375.834 272.595 374.982 272.683 374.27 273.083L348.112 287.817L348.112 287.817Z" fill="url(#paint16_linear_10_1590)"/>
<path d="M348.112 287.817L374.264 273.086C374.977 272.683 375.482 272.005 375.655 271.219C375.827 270.433 375.651 269.612 375.17 268.96C373.035 266.05 370.424 263.502 367.441 261.42C366.772 260.95 365.931 260.778 365.125 260.946C364.32 261.115 363.624 261.607 363.211 262.303L348.112 287.817H348.112Z" fill="url(#paint17_linear_10_1590)"/>
<path d="M328.783 261.42C325.8 263.502 323.189 266.05 321.054 268.96C320.573 269.612 320.397 270.433 320.569 271.219C320.742 272.005 321.247 272.683 321.96 273.086L338.702 282.517C341.281 283.97 344.168 281.153 342.679 278.637L333.013 262.303C332.6 261.607 331.904 261.115 331.098 260.946C330.293 260.778 329.452 260.95 328.783 261.42Z" fill="url(#paint18_linear_10_1590)"/>
<path d="M348.112 287.817L321.954 273.083C321.242 272.683 320.39 272.595 319.607 272.839C318.824 273.084 318.184 273.64 317.843 274.37C316.317 277.629 315.358 281.113 315.006 284.68C314.923 285.481 315.191 286.278 315.743 286.875C316.295 287.473 317.08 287.815 317.905 287.817L348.112 287.817Z" fill="url(#paint19_linear_10_1590)"/>
<ellipse cx="348.112" cy="287.817" rx="10.5708" ry="10.3129" fill="url(#paint20_linear_10_1590)"/>
<path d="M304.503 293.553H391.721V340.221C391.721 343.972 388.604 347.014 384.758 347.014H311.466C307.62 347.014 304.503 343.972 304.503 340.221V293.553Z" fill="url(#paint21_linear_10_1590)"/>
<mask id="mask0_10_1590" style="mask-type:luminance" maskUnits="userSpaceOnUse" x="304" y="293" width="88" height="55">
<path fill-rule="evenodd" clip-rule="evenodd" d="M304.503 293.553H391.721V340.221C391.721 343.972 388.604 347.014 384.758 347.014H311.466C307.62 347.014 304.503 343.972 304.503 340.221V293.553Z" fill="white"/>
</mask>
<g mask="url(#mask0_10_1590)">
<rect opacity="0.09" width="112.128" height="9.04768" transform="matrix(0.892613 -0.450823 0.468734 0.88334 268.341 326.285)" fill="white"/>
<rect opacity="0.09" width="112.128" height="9.04768" transform="matrix(0.892613 -0.450823 0.468734 0.88334 282.041 338.367)" fill="white"/>
<rect opacity="0.09" width="112.128" height="9.04768" transform="matrix(0.892613 -0.450823 0.468734 0.88334 297.292 348.68)" fill="white"/>
<rect opacity="0.09" width="112.128" height="9.04768" transform="matrix(0.892613 -0.450823 0.468734 0.88334 313.836 356.9)" fill="white"/>
<rect opacity="0.09" width="112.128" height="9.04768" transform="matrix(0.892613 -0.450823 0.468734 0.88334 325.489 368.293)" fill="white"/>
</g>
<rect x="298.077" y="282.61" width="100.071" height="18.3614" rx="2.43501" fill="url(#paint22_linear_10_1590)"/>
<rect x="336.286" y="282.28" width="23.6522" height="64.7337" fill="url(#paint23_linear_10_1590)"/>
<path d="M403.434 311.663H419.423C419.859 311.661 420.275 311.48 420.567 311.164C420.859 310.848 421.001 310.426 420.957 310.002C420.771 308.114 420.263 306.27 419.455 304.545C419.275 304.159 418.936 303.865 418.522 303.735C418.107 303.605 417.656 303.652 417.279 303.864L403.434 311.663Z" fill="url(#paint24_linear_10_1590)"/>
<path d="M403.434 311.663L417.276 303.866C417.654 303.652 417.921 303.293 418.012 302.877C418.104 302.461 418.01 302.027 417.756 301.681C416.626 300.141 415.244 298.793 413.665 297.69C413.311 297.442 412.866 297.351 412.439 297.44C412.013 297.529 411.645 297.79 411.426 298.158L403.434 311.663H403.434Z" fill="url(#paint25_linear_10_1590)"/>
<path d="M393.203 297.69C391.624 298.793 390.242 300.141 389.112 301.681C388.858 302.027 388.764 302.461 388.856 302.877C388.947 303.293 389.214 303.652 389.592 303.866L398.453 308.857C399.819 309.626 401.347 308.135 400.558 306.803L395.442 298.158C395.223 297.79 394.855 297.529 394.429 297.44C394.002 297.351 393.557 297.442 393.203 297.69Z" fill="url(#paint26_linear_10_1590)"/>
<path d="M403.434 311.663V296.064C403.433 295.638 403.247 295.233 402.923 294.948C402.599 294.663 402.166 294.525 401.732 294.567C399.797 294.749 397.907 295.244 396.138 296.032C395.742 296.208 395.441 296.539 395.308 296.943C395.175 297.347 395.223 297.787 395.44 298.155L403.434 311.663H403.434Z" fill="url(#paint27_linear_10_1590)"/>
<path d="M410.73 296.032C408.962 295.244 407.071 294.749 405.136 294.567C404.702 294.525 404.269 294.663 403.945 294.948C403.621 295.233 403.435 295.638 403.434 296.064V306.052C403.434 307.59 405.521 308.135 406.31 306.803L411.428 298.155C411.645 297.787 411.693 297.347 411.56 296.943C411.427 296.539 411.126 296.208 410.73 296.032Z" fill="url(#paint28_linear_10_1590)"/>
<path d="M403.434 311.663L389.589 303.864C389.212 303.652 388.761 303.605 388.346 303.735C387.932 303.865 387.593 304.159 387.413 304.545C386.605 306.27 386.097 308.114 385.911 310.002C385.867 310.426 386.009 310.848 386.301 311.164C386.593 311.48 387.009 311.661 387.445 311.663H403.434Z" fill="url(#paint29_linear_10_1590)"/>
<ellipse cx="403.434" cy="311.663" rx="5.59515" ry="5.45863" fill="url(#paint30_linear_10_1590)"/>
<path d="M377.856 315.657H429.013V343.029C429.013 345.23 427.184 347.014 424.929 347.014H381.939C379.684 347.014 377.856 345.23 377.856 343.029V315.657Z" fill="url(#paint31_linear_10_1590)"/>
<mask id="mask1_10_1590" style="mask-type:luminance" maskUnits="userSpaceOnUse" x="377" y="315" width="53" height="33">
<path fill-rule="evenodd" clip-rule="evenodd" d="M377.856 315.657H429.013V343.029C429.013 345.23 427.184 347.014 424.929 347.014H381.939C379.684 347.014 377.856 345.23 377.856 343.029V315.657Z" fill="white"/>
</mask>
<g mask="url(#mask1_10_1590)">
<rect opacity="0.09" x="372.902" y="319.478" width="70.1986" height="6.66064" fill="white"/>
<rect opacity="0.09" x="372.902" y="339.047" width="70.1986" height="6.66064" fill="white"/>
<rect opacity="0.09" x="372.902" y="330.126" width="70.1986" height="4.09836" fill="white"/>
<rect opacity="0.09" x="398.756" y="366.836" width="68.4858" height="6.82722" transform="rotate(-90 398.756 366.836)" fill="white"/>
<rect opacity="0.09" x="418.815" y="366.835" width="68.4858" height="6.82722" transform="rotate(-90 418.815 366.835)" fill="white"/>
<rect opacity="0.09" x="409.671" y="366.835" width="68.4858" height="4.20085" transform="rotate(-90 409.671 366.835)" fill="white"/>
<rect opacity="0.09" x="388.406" y="366.836" width="68.4858" height="6.82722" transform="rotate(-90 388.406 366.836)" fill="white"/>
<rect opacity="0.09" x="379.262" y="366.836" width="68.4858" height="4.20085" transform="rotate(-90 379.262 366.836)" fill="white"/>
</g>
<rect x="374.086" y="309.238" width="58.6959" height="10.7698" rx="1.42824" fill="url(#paint32_linear_10_1590)"/>
<rect x="396.498" y="309.123" width="13.8731" height="37.8906" fill="url(#paint33_linear_10_1590)"/>
<mask id="mask2_10_1590" style="mask-type:luminance" maskUnits="userSpaceOnUse" x="396" y="309" width="15" height="39">
<rect x="396.498" y="309.123" width="13.8731" height="37.8906" fill="white"/>
</mask>
<g mask="url(#mask2_10_1590)">
<rect x="394.347" y="320.008" width="18.1746" height="10.585" fill="url(#paint34_linear_10_1590)"/>
</g>
<path d="M411.467 308.926L414.361 310.287C415.674 310.904 416.448 311.879 416.448 312.915V331.089L420.029 327.539L425.166 330.793V312.741C425.166 311.584 424.201 310.512 422.628 309.924L420.456 309.111L411.467 308.926Z" fill="url(#paint35_linear_10_1590)"/>
<path d="M152.147 275.858H151.193V267.191C151.193 260.794 156.508 255.608 163.064 255.608C169.621 255.608 174.936 260.794 174.936 267.191V275.278H173.982V267.191C173.982 261.308 169.094 256.539 163.064 256.539C157.035 256.539 152.147 261.308 152.147 267.191L152.147 275.858Z" fill="url(#paint36_linear_10_1590)"/>
<path d="M194.505 346.367H136.865L142.722 272.625H188.648L194.505 346.367Z" fill="url(#paint37_linear_10_1590)"/>
<path d="M183.598 346.367H125.958L131.815 272.625H177.741L183.598 346.367Z" fill="url(#paint38_linear_10_1590)"/>
<mask id="mask3_10_1590" style="mask-type:luminance" maskUnits="userSpaceOnUse" x="125" y="272" width="59" height="75">
<path fill-rule="evenodd" clip-rule="evenodd" d="M183.598 346.367H125.958L131.815 272.625H177.741L183.598 346.367Z" fill="white"/>
</mask>
<g mask="url(#mask3_10_1590)">
<path d="M136.865 270.303C141.057 337.62 152.214 344.007 183.598 346.367C214.983 348.727 125.958 369.463 125.958 369.463L105.452 324.493L132.611 255.608" fill="url(#paint39_linear_10_1590)"/>
</g>
<path d="M143.86 275.858H142.906V267.191C142.906 260.794 148.221 255.608 154.778 255.608C161.334 255.608 166.65 260.794 166.65 267.191V275.278H165.695V267.191C165.695 261.308 160.807 256.539 154.778 256.539C148.748 256.539 143.86 261.308 143.86 267.191L143.86 275.858Z" fill="url(#paint40_linear_10_1590)"/>
<path d="M106.251 287.274H105.452V280.01C105.452 274.649 109.906 270.303 115.401 270.303C120.896 270.303 125.351 274.649 125.351 280.01V286.788H124.551V280.01C124.551 275.08 120.455 271.083 115.401 271.083C110.348 271.083 106.251 275.08 106.251 280.01L106.251 287.274Z" fill="url(#paint41_linear_10_1590)"/>
<path d="M141.752 346.367H93.4437L98.3527 284.564H136.843L141.752 346.367Z" fill="url(#paint42_linear_10_1590)"/>
<path d="M132.611 346.367H84.3026L89.2114 284.564H127.702L132.611 346.367Z" fill="url(#paint43_linear_10_1590)"/>
<mask id="mask4_10_1590" style="mask-type:luminance" maskUnits="userSpaceOnUse" x="84" y="284" width="49" height="63">
<path fill-rule="evenodd" clip-rule="evenodd" d="M132.611 346.367H84.3026L89.2114 284.564H127.702L132.611 346.367Z" fill="white"/>
</mask>
<g mask="url(#mask4_10_1590)">
<path d="M93.4435 275.858C84.9879 378.143 171.981 349.21 171.981 349.21L52.86 379.212L68.1825 272.625" fill="url(#paint44_linear_10_1590)"/>
</g>
<path d="M99.3065 287.274H98.5068V280.01C98.5068 274.649 102.961 270.303 108.457 270.303C113.952 270.303 118.406 274.649 118.406 280.01V286.788H117.607V280.01C117.6 275.084 113.505 271.095 108.457 271.095C103.408 271.095 99.313 275.084 99.3065 280.01V287.274Z" fill="url(#paint45_linear_10_1590)"/>
<rect x="162.356" y="237.352" width="168.471" height="109.574" rx="6.94766" fill="url(#paint46_linear_10_1590)"/>
<mask id="mask5_10_1590" style="mask-type:luminance" maskUnits="userSpaceOnUse" x="162" y="237" width="169" height="110">
<rect x="162.356" y="237.352" width="168.471" height="109.574" rx="6.94766" fill="white"/>
</mask>
<g mask="url(#mask5_10_1590)">
<rect x="127.738" y="255.364" width="220.013" height="19.5132" fill="url(#paint47_linear_10_1590)"/>
<rect x="223.321" y="292.139" width="61.1574" height="10.3195" fill="url(#paint48_linear_10_1590)"/>
<rect x="293.902" y="292.139" width="22.8183" height="10.3195" fill="url(#paint49_linear_10_1590)"/>
<path d="M330.827 274.877C327.416 372.915 154.122 332.527 154.122 332.527L152.678 379.532L282.648 382.913L336.562 365.401L336.08 285.564" fill="url(#paint50_linear_10_1590)"/>
</g>
<path d="M326.294 265.157C326.294 265.157 317.735 286.121 322.421 298.07L321.185 301.231L310.055 285.967L312.324 276.486L314.779 259.014L324.444 265.014L326.294 265.157Z" fill="url(#paint51_linear_10_1590)"/>
<mask id="mask6_10_1590" style="mask-type:luminance" maskUnits="userSpaceOnUse" x="310" y="259" width="17" height="43">
<path fill-rule="evenodd" clip-rule="evenodd" d="M326.294 265.157C326.294 265.157 317.735 286.121 322.421 298.07L321.185 301.231L310.055 285.967L312.324 276.486L314.779 259.014L324.444 265.014L326.294 265.157Z" fill="white"/>
</mask>
<g mask="url(#mask6_10_1590)">
<path opacity="0.34" d="M312.068 273.459C312.802 265.761 322.738 269.85 326.295 268.804C329.851 267.758 310.885 264.15 310.885 264.15L310.508 267.551" fill="url(#paint52_linear_10_1590)"/>
</g>
<path d="M312.324 276.486L307.522 279.528C306.24 280.327 305.603 281.82 305.925 283.27L311.7 297.74C312.306 299.24 313.545 300.413 315.101 300.958L328.598 305.747C328.598 305.747 331.375 302.789 322.422 298.07C309.402 293.622 312.324 276.486 312.324 276.486Z" fill="url(#paint53_linear_10_1590)"/>
<path d="M309.169 265.582C309.169 265.582 325.896 270.441 329.607 269.156L336.081 231.993C336.89 227.352 333.875 222.881 329.107 221.652L284.067 210.036L288.357 195.215L268.887 196.863L263.827 218.712L267.537 231.885L313.078 237.99L309.169 265.582Z" fill="url(#paint54_linear_10_1590)"/>
<mask id="mask7_10_1590" style="mask-type:luminance" maskUnits="userSpaceOnUse" x="263" y="195" width="74" height="75">
<path fill-rule="evenodd" clip-rule="evenodd" d="M309.169 265.582C309.169 265.582 325.896 270.441 329.607 269.156L336.081 231.993C336.89 227.352 333.875 222.881 329.107 221.652L284.067 210.036L288.357 195.215L268.887 196.863L263.827 218.712L267.537 231.885L313.078 237.99L309.169 265.582Z" fill="white"/>
</mask>
<g mask="url(#mask7_10_1590)">
<path opacity="0.51" d="M278.223 210.464C278.223 210.464 283.239 220.1 288.067 221.449C298.193 224.281 297.763 226.361 296.392 231.811C295.021 237.26 310.056 239.168 310.056 239.168L297.006 243.459L281.489 234.088L278.223 210.464Z" fill="url(#paint55_linear_10_1590)"/>
</g>
<path d="M302.451 311.729C302.451 311.729 302.114 334.22 310.885 343.859V347.233L294.861 336.63L293.512 326.991L289.409 309.801L300.666 312.211L302.451 311.729Z" fill="url(#paint56_linear_10_1590)"/>
<mask id="mask8_10_1590" style="mask-type:luminance" maskUnits="userSpaceOnUse" x="289" y="309" width="22" height="39">
<path fill-rule="evenodd" clip-rule="evenodd" d="M302.451 311.729C302.451 311.729 302.114 334.22 310.885 343.859V347.233L294.861 336.63L293.512 326.991L289.409 309.801L300.666 312.211L302.451 311.729Z" fill="white"/>
</mask>
<g mask="url(#mask8_10_1590)">
<path opacity="0.34" d="M293.109 325.304C291.533 318.698 301.157 318.308 303.126 316.336C305.094 314.364 286.653 315.617 286.653 315.617L287.754 321.883" fill="url(#paint57_linear_10_1590)"/>
</g>
<path d="M293.512 326.991L290.127 331.438C289.218 332.625 289.169 334.239 290.002 335.476L300.716 347.115C301.832 348.319 303.42 349.004 305.083 349H319.487C319.487 349 321.005 345.305 310.885 343.859C297.054 344.02 293.512 326.991 293.512 326.991Z" fill="url(#paint58_linear_10_1590)"/>
<path d="M315.44 175.459C315.538 181.578 309.093 181.1 309.424 183.777L291.233 184.925L287.843 195.537L317.498 189.514V174.503L315.44 175.459Z" fill="url(#paint59_linear_10_1590)"/>
<mask id="mask9_10_1590" style="mask-type:luminance" maskUnits="userSpaceOnUse" x="287" y="174" width="31" height="22">
<path fill-rule="evenodd" clip-rule="evenodd" d="M315.44 175.459C315.538 181.578 309.093 181.1 309.424 183.777L291.233 184.925L287.843 195.537L317.498 189.514V174.503L315.44 175.459Z" fill="white"/>
</mask>
<g mask="url(#mask9_10_1590)">
<path opacity="0.34" d="M294.85 182.666C293.752 188.499 296.503 193.766 300.019 194.004C303.535 194.243 287.843 199.084 287.843 199.084L284.084 187.798L294.85 182.666Z" fill="url(#paint60_linear_10_1590)"/>
</g>
<ellipse cx="318.814" cy="190.57" rx="4.89249" ry="0.726261" fill="url(#paint61_linear_10_1590)"/>
<path d="M323.706 190.57H313.921L312.532 170.172H325.095L323.706 190.57Z" fill="url(#paint62_linear_10_1590)"/>
<mask id="mask10_10_1590" style="mask-type:luminance" maskUnits="userSpaceOnUse" x="312" y="170" width="14" height="21">
<path fill-rule="evenodd" clip-rule="evenodd" d="M323.706 190.57H313.921L312.532 170.172H325.095L323.706 190.57Z" fill="white"/>
</mask>
<g mask="url(#mask10_10_1590)">
<path d="M318.625 177.589C316.279 177.603 313.935 177.493 311.601 177.259V185.579C316.273 186.018 320.977 186.018 325.648 185.579V177.259C323.315 177.493 320.97 177.603 318.625 177.589Z" fill="url(#paint63_linear_10_1590)"/>
</g>
<ellipse cx="318.814" cy="170.172" rx="6.60468" ry="0.894766" fill="url(#paint64_linear_10_1590)"/>
<path d="M312.059 173.786C314.656 173.308 315.734 176.081 313.529 181.626L310.736 185.929L308.09 184.59L309.424 183.777C309.266 179.953 312.931 180.516 312.059 173.786Z" fill="url(#paint65_linear_10_1590)"/>
<path d="M323.78 186.523C324.166 186.384 324.516 186.25 324.685 186.168L326.437 178.875C326.676 177.88 325.689 176.873 324.645 176.783L324.538 178.28C322.419 179.213 322.112 183.123 322.12 185.403C322.121 185.796 322.319 186.163 322.65 186.387C322.981 186.61 323.403 186.661 323.78 186.523Z" fill="url(#paint66_linear_10_1590)"/>
<path d="M285.416 319.601C285.416 319.601 301.945 319.049 305.994 314.345L302.081 255.136C301.991 253.796 301.504 252.51 300.679 251.434L273.464 215.82L279.007 196.863L259.89 196.198L258.092 202.325L249.622 219.49C245.351 228.146 248.22 238.473 256.427 243.983L283.392 262.088L285.416 319.601Z" fill="url(#paint67_linear_10_1590)"/>
<mask id="mask11_10_1590" style="mask-type:luminance" maskUnits="userSpaceOnUse" x="247" y="196" width="59" height="124">
<path fill-rule="evenodd" clip-rule="evenodd" d="M285.416 319.601C285.416 319.601 301.945 319.049 305.994 314.345L302.081 255.136C301.991 253.796 301.504 252.51 300.679 251.434L273.464 215.82L279.007 196.863L259.89 196.198L258.092 202.325L249.622 219.49C245.351 228.146 248.22 238.473 256.427 243.983L283.392 262.088L285.416 319.601Z" fill="white"/>
</mask>
<g mask="url(#mask11_10_1590)">
<path d="M273.323 189.844C254.992 241.38 252.363 234.968 279.066 258.232C300.019 276.486 235.527 262.074 235.527 262.074L242.912 213.062L243.924 207.305" fill="url(#paint68_linear_10_1590)"/>
</g>
<path d="M267.15 193.285L288.357 195.215C288.357 195.215 301.358 160.854 287.955 148.136L262.138 150.54L267.83 199.084L267.15 193.285Z" fill="url(#paint69_linear_10_1590)"/>
<path d="M256.813 193.173C270.4 199.622 290.346 196.647 294.018 192.348C291.6 166.881 303.655 163.192 290.796 149.686C290.017 148.873 288.993 148.325 287.873 148.12C283.164 147.246 269.81 145.575 258.098 151.794L256.813 193.173Z" fill="url(#paint70_linear_10_1590)"/>
<mask id="mask12_10_1590" style="mask-type:luminance" maskUnits="userSpaceOnUse" x="256" y="147" width="41" height="50">
<path fill-rule="evenodd" clip-rule="evenodd" d="M256.813 193.173C270.4 199.622 290.346 196.647 294.018 192.348C291.6 166.881 303.655 163.192 290.796 149.686C290.017 148.873 288.993 148.325 287.873 148.12C283.164 147.246 269.81 145.575 258.098 151.794L256.813 193.173Z" fill="white"/>
</mask>
<g mask="url(#mask12_10_1590)">
<ellipse cx="5.82771" cy="10.4108" rx="5.82771" ry="10.4108" transform="matrix(0.474995 -0.879988 0.889479 0.456976 265.913 149.641)" fill="url(#paint71_linear_10_1590)"/>
<path d="M270.767 161.288C277.276 196.877 287.843 197.293 296.656 192.277L302.67 199.084C302.67 199.084 266.566 199.275 259.853 200.971C253.141 202.667 247.176 197.651 247.176 197.651L255.16 178.126L269.141 163.975" fill="url(#paint72_linear_10_1590)"/>
</g>
<path d="M272.501 144.177C231.949 155.391 269.141 113.826 278.166 116.516C293.935 110.436 297.523 147.375 281.707 144.151L272.501 144.177Z" fill="url(#paint73_linear_10_1590)"/>
<mask id="mask13_10_1590" style="mask-type:luminance" maskUnits="userSpaceOnUse" x="253" y="115" width="39" height="32">
<path fill-rule="evenodd" clip-rule="evenodd" d="M272.501 144.177C231.949 155.391 269.141 113.826 278.166 116.516C293.935 110.436 297.523 147.375 281.707 144.151L272.501 144.177Z" fill="white"/>
</mask>
<g mask="url(#mask13_10_1590)">
<path d="M256.354 135.314C268.43 145.117 271.477 140.611 272.362 136.619C273.246 132.627 273.705 142.658 273.705 142.658L273.521 145.614L260.577 144.351L254.977 137.912" fill="url(#paint74_linear_10_1590)"/>
</g>
<path d="M281.849 137.979L280.999 150.968L271.281 148.345L272.476 132.209L281.849 137.979Z" fill="url(#paint75_linear_10_1590)"/>
<mask id="mask14_10_1590" style="mask-type:luminance" maskUnits="userSpaceOnUse" x="271" y="132" width="11" height="19">
<path fill-rule="evenodd" clip-rule="evenodd" d="M281.849 137.979L280.999 150.968L271.281 148.345L272.476 132.209L281.849 137.979Z" fill="white"/>
</mask>
<g mask="url(#mask14_10_1590)">
<path opacity="0.34" d="M273.138 136.316C279.325 143.855 274.514 144.992 282.11 146.378C289.706 147.764 279.949 138.233 279.949 138.233L273.858 136.619" fill="url(#paint76_linear_10_1590)"/>
</g>
<path d="M273.351 125.635L271.934 136.275C271.934 136.275 276.309 142.882 281.707 144.151C287.292 145.465 289.751 131.163 288.137 126.603C286.523 122.043 278.874 121.214 278.874 121.214L271.934 126.603L273.351 125.635Z" fill="url(#paint77_linear_10_1590)"/>
<path d="M270.424 128.767C270.424 128.767 284.721 133.83 286.704 124.434C286.704 124.434 291.559 135.357 290.624 125.454C290.624 125.454 284.965 115.871 277.694 118.174C270.424 120.477 270.424 128.767 270.424 128.767Z" fill="url(#paint78_linear_10_1590)"/>
<path d="M274.727 130.724C267.843 124.943 267.646 134.415 272.362 136.619L274.727 130.724Z" fill="url(#paint79_linear_10_1590)"/>
<path d="M253.189 163.274C253.189 163.274 255.578 197.486 256.303 198.487L287.461 236.837C287.461 236.837 290.395 237.207 287.185 228.391C285.288 223.18 287.903 224.244 286.637 222.468C285.37 220.692 279.907 216.761 279.907 216.761L269.313 195.2L266.925 154.971L253.189 163.274Z" fill="url(#paint80_linear_10_1590)"/>
<mask id="mask15_10_1590" style="mask-type:luminance" maskUnits="userSpaceOnUse" x="253" y="154" width="36" height="83">
<path fill-rule="evenodd" clip-rule="evenodd" d="M253.189 163.274C253.189 163.274 255.578 197.486 256.303 198.487L287.461 236.837C287.461 236.837 290.395 237.207 287.185 228.391C285.288 223.18 287.903 224.244 286.637 222.468C285.37 220.692 279.907 216.761 279.907 216.761L269.313 195.2L266.925 154.971L253.189 163.274Z" fill="white"/>
</mask>
<g mask="url(#mask15_10_1590)">
<path opacity="0.34" d="M254.114 191.297C254.725 181.473 263.066 186.455 269.121 182.647C275.176 178.838 249.832 178.489 249.832 178.489L250.321 183.752L247.655 190.57" fill="url(#paint81_linear_10_1590)"/>
</g>
<path d="M247.176 179.21C264.088 188.702 273.323 180.371 273.323 180.371L271.022 157.629C270.202 153.182 265.947 150.148 261.356 150.735C257.977 151.167 255.171 153.489 254.182 156.671L247.176 179.21Z" fill="url(#paint82_linear_10_1590)"/>
<path d="M316.836 168.099H315.16L313.166 154.303H314.842L316.836 168.099Z" fill="url(#paint83_linear_10_1590)"/>
<path d="M220.838 151.507C229.19 153.645 225.874 175.295 225.874 175.295L241.605 157.116L231.221 142.962L220.838 151.507Z" fill="url(#paint84_linear_10_1590)"/>
<mask id="mask16_10_1590" style="mask-type:luminance" maskUnits="userSpaceOnUse" x="220" y="142" width="22" height="34">
<path fill-rule="evenodd" clip-rule="evenodd" d="M220.838 151.507C229.19 153.645 225.874 175.295 225.874 175.295L241.605 157.116L231.221 142.962L220.838 151.507Z" fill="white"/>
</mask>
<g mask="url(#mask16_10_1590)">
<path opacity="0.34" d="M224.221 162.449C232.598 155.249 225.999 152.294 229.883 147.8C233.768 143.306 222.327 147.389 222.327 147.389L218.715 153.32L222.327 158.463" fill="url(#paint85_linear_10_1590)"/>
</g>
<path d="M218.924 127.7C209.945 147.241 215.291 159.286 226.204 152.219C237.539 144.879 232.802 139.759 232.802 139.759L224.788 129.088L218.924 127.7Z" fill="url(#paint86_linear_10_1590)"/>
<path d="M230.77 141.088C225.804 142.459 220.16 133.074 222.644 129.602C205.036 129.088 212.765 118.674 216.688 123.431C209.1 107.617 221.402 116.874 222.531 123.302C223.659 129.731 233.253 133.432 233.253 133.432C233.253 133.432 236.865 139.374 236.865 139.759C236.865 140.145 233.93 148.374 233.93 148.374C233.93 148.374 227.548 147.519 230.77 141.088Z" fill="url(#paint87_linear_10_1590)"/>
<path d="M225.127 123.171C210.25 93.7923 218.208 116.356 222.327 124.135C226.447 131.913 225.127 123.171 225.127 123.171Z" fill="url(#paint88_linear_10_1590)"/>
<path d="M222.327 124.135C231.018 115.392 248.023 131.036 234.995 145.362L222.327 124.135Z" fill="url(#paint89_linear_10_1590)"/>
<path d="M222.154 164.518L235.586 149.805C237.251 147.823 240.189 148.982 240.423 151.712L240.642 154.275L222.154 164.518Z" fill="url(#paint90_linear_10_1590)"/>
<path d="M208.18 181.57L196.249 173.246C196.249 173.246 192.77 157.277 192.123 156.937C191.477 156.597 181.336 150.821 181.336 150.821C181.336 150.821 178.609 152.397 186.407 157.447C186.407 157.447 184.766 163.902 184.915 164.582C185.064 165.261 192.67 181.57 192.67 181.57L201.32 191.423L208.18 181.57Z" fill="url(#paint91_linear_10_1590)"/>
<path d="M176.251 154.914L173.396 156.875L161.632 134.652C160.833 133.143 161.259 131.182 162.584 130.272L163.04 129.959L176.251 154.914Z" fill="url(#paint92_linear_10_1590)"/>
<mask id="mask17_10_1590" style="mask-type:luminance" maskUnits="userSpaceOnUse" x="161" y="129" width="16" height="28">
<path fill-rule="evenodd" clip-rule="evenodd" d="M176.251 154.914L173.396 156.875L161.632 134.652C160.833 133.143 161.259 131.182 162.584 130.272L163.04 129.959L176.251 154.914Z" fill="white"/>
</mask>
<g mask="url(#mask17_10_1590)">
<path d="M178.398 153.84L175.544 155.801L163.779 133.578C162.98 132.069 163.407 130.107 164.731 129.197L165.187 128.884L178.398 153.84Z" fill="url(#paint93_linear_10_1590)"/>
</g>
<path d="M189.198 174.361L180.635 164.247C180.635 164.247 178.257 153.152 178.176 152.582C178.096 152.012 173.555 144.904 172.67 147.586L174.095 150.818C174.444 151.612 174.221 152.578 173.574 153.072C172.935 153.561 172.078 153.44 171.563 152.79L165.68 145.36C165.68 145.36 162.949 146.716 166.85 152.097C166.85 152.097 166.25 161.251 167.39 162.887C168.529 164.522 174.506 169.051 175.233 171.122L189.198 192.879V174.361Z" fill="url(#paint94_linear_10_1590)"/>
<mask id="mask18_10_1590" style="mask-type:luminance" maskUnits="userSpaceOnUse" x="164" y="145" width="26" height="48">
<path fill-rule="evenodd" clip-rule="evenodd" d="M189.198 174.361L180.635 164.247C180.635 164.247 178.257 153.152 178.176 152.582C178.096 152.012 173.555 144.904 172.67 147.586L174.095 150.818C174.444 151.612 174.221 152.578 173.574 153.072C172.935 153.561 172.078 153.44 171.563 152.79L165.68 145.36C165.68 145.36 162.949 146.716 166.85 152.097C166.85 152.097 166.25 161.251 167.39 162.887C168.529 164.522 174.506 169.051 175.233 171.122L189.198 192.879V174.361Z" fill="white"/>
</mask>
<g mask="url(#mask18_10_1590)">
<path opacity="0.34" d="M186.364 169.715C179.711 169.007 181.774 178.741 178.659 176.46C175.544 174.178 177.223 182.697 177.223 182.697L182.322 184.237L186.24 182.697" fill="url(#paint95_linear_10_1590)"/>
</g>
<path d="M176.995 266.097L185.456 298.528C185.456 298.528 174.285 307.713 174.742 306.545C175.526 304.541 165.596 281.523 165.596 281.523L176.995 266.097Z" fill="url(#paint96_linear_10_1590)"/>
<mask id="mask19_10_1590" style="mask-type:luminance" maskUnits="userSpaceOnUse" x="165" y="266" width="21" height="41">
<path fill-rule="evenodd" clip-rule="evenodd" d="M176.995 266.097L185.456 298.528C185.456 298.528 174.285 307.713 174.742 306.545C175.526 304.541 165.596 281.523 165.596 281.523L176.995 266.097Z" fill="white"/>
</mask>
<g mask="url(#mask19_10_1590)">
<path opacity="0.34" d="M171.875 299.844C170.321 294.532 182.012 292.902 183.442 289.219C184.872 285.535 171.564 288.865 171.564 288.865L168.853 291.911" fill="url(#paint97_linear_10_1590)"/>
</g>
<path d="M168.979 293.802C181.651 293.802 187.336 286.372 187.336 286.372L169.14 228.321L150.37 237.077L168.979 293.802Z" fill="url(#paint98_linear_10_1590)"/>
<path d="M172.956 301.216C172.956 301.216 181.696 298.908 184.375 293.07L189.379 305.851C190.047 307.559 189.548 309.644 188.25 310.566L171.046 322.774C170.659 323.057 170.189 323.211 169.705 323.212L147.703 323.018C149.132 312.295 176.995 319.733 172.956 301.216Z" fill="url(#paint99_linear_10_1590)"/>
<path d="M106.105 311.696L127.658 268.176L141.837 274.133L124.059 302.714L121.104 317.964L106.105 311.696Z" fill="url(#paint100_linear_10_1590)"/>
<mask id="mask20_10_1590" style="mask-type:luminance" maskUnits="userSpaceOnUse" x="106" y="268" width="36" height="50">
<path fill-rule="evenodd" clip-rule="evenodd" d="M106.105 311.696L127.658 268.176L141.837 274.133L124.059 302.714L121.104 317.964L106.105 311.696Z" fill="white"/>
</mask>
<g mask="url(#mask20_10_1590)">
<path opacity="0.34" d="M120.221 283.193C113.42 282.277 129.402 291.481 126.044 299.523C122.686 307.566 130.584 294.673 130.584 294.673L128.842 286.881" fill="url(#paint101_linear_10_1590)"/>
</g>
<path d="M77.1293 323.375C79.201 314.192 92.5484 316.637 101.091 310.894C109.634 305.151 109.031 300.018 109.031 300.018L124.059 304.866L121.884 317.197C121.455 319.627 119.511 321.702 117.59 321.778L77.1293 323.375Z" fill="url(#paint102_linear_10_1590)"/>
<path d="M118.51 282.141C118.51 282.141 128.354 297.587 137 298.072L160.615 246.187L223.112 246.807C229.473 246.87 234.924 240.944 235.966 232.835L238.808 210.72L211.741 200.031L203.094 214.606L153.018 219.483C149.997 219.777 147.267 221.923 145.676 225.255L118.51 282.141Z" fill="url(#paint103_linear_10_1590)"/>
<mask id="mask21_10_1590" style="mask-type:luminance" maskUnits="userSpaceOnUse" x="118" y="200" width="121" height="99">
<path fill-rule="evenodd" clip-rule="evenodd" d="M118.51 282.141C118.51 282.141 128.354 297.587 137 298.072L160.615 246.187L223.112 246.807C229.473 246.87 234.924 240.944 235.966 232.835L238.808 210.72L211.741 200.031L203.094 214.606L153.018 219.483C149.997 219.777 147.267 221.923 145.676 225.255L118.51 282.141Z" fill="white"/>
</mask>
<g mask="url(#mask21_10_1590)">
<path d="M203.094 214.606C253.961 249.051 204.346 243.353 204.709 249.051C205.073 254.75 257.443 247.566 257.443 247.566L211.741 200.031" fill="url(#paint104_linear_10_1590)"/>
</g>
<path d="M192.123 207.279C192.123 207.279 221.126 228.571 237.033 228.571C237.033 228.571 258.14 181.91 240.642 154.275L222.154 164.518L192.123 207.279Z" fill="url(#paint105_linear_10_1590)"/>
<mask id="mask22_10_1590" style="mask-type:luminance" maskUnits="userSpaceOnUse" x="192" y="154" width="56" height="75">
<path fill-rule="evenodd" clip-rule="evenodd" d="M192.123 207.279C192.123 207.279 221.126 228.571 237.033 228.571C237.033 228.571 258.14 181.91 240.642 154.275L222.154 164.518L192.123 207.279Z" fill="white"/>
</mask>
<g mask="url(#mask22_10_1590)">
<path d="M238.708 180.013C210.43 209.313 237.033 228.571 237.033 228.571C237.033 228.571 184.561 233.965 183.815 231.84C183.069 229.715 180.002 191.423 180.002 191.423L211.502 188.487" fill="url(#paint106_linear_10_1590)"/>
</g>
<path d="M177.188 174.194C177.188 174.194 170.223 180.242 171.072 190.705L187.916 208.901C191.077 212.315 195.919 212.697 199.462 209.812L229.707 185.188C234.235 181.501 235.355 174.372 232.23 169.125C228.961 163.636 222.34 162.345 217.655 166.283L193.903 186.243L177.188 174.194Z" fill="url(#paint107_linear_10_1590)"/>
<defs>
<linearGradient id="paint0_linear_10_1590" x1="3.53513e-05" y1="344.533" x2="501" y2="344.533" gradientUnits="userSpaceOnUse">
<stop offset="0.1011" stop-color="#FFDF94"/>
<stop offset="1" stop-color="#58F1FE"/>
</linearGradient>
<linearGradient id="paint1_linear_10_1590" x1="46.5739" y1="111.796" x2="459.506" y2="111.796" gradientUnits="userSpaceOnUse">
<stop offset="0.0083" stop-color="#00CAFE"/>
<stop offset="1" stop-color="#0088FA"/>
</linearGradient>
<linearGradient id="paint2_linear_10_1590" x1="90.3938" y1="228.423" x2="176.811" y2="228.423" gradientUnits="userSpaceOnUse">
<stop offset="0.1035" stop-color="#F6FBFF"/>
<stop offset="0.8866" stop-color="#E9EFFC"/>
</linearGradient>
<linearGradient id="paint3_linear_10_1590" x1="96.7852" y1="249.817" x2="167.917" y2="249.817" gradientUnits="userSpaceOnUse">
<stop offset="0.1035" stop-color="#F6FBFF"/>
<stop offset="0.8866" stop-color="#E9EFFC"/>
</linearGradient>
<linearGradient id="paint4_linear_10_1590" x1="96.7852" y1="261.657" x2="148.52" y2="261.657" gradientUnits="userSpaceOnUse">
<stop offset="0.1035" stop-color="#F6FBFF"/>
<stop offset="0.8866" stop-color="#E9EFFC"/>
</linearGradient>
<linearGradient id="paint5_linear_10_1590" x1="144.597" y1="244.469" x2="184.703" y2="186.792" gradientUnits="userSpaceOnUse">
<stop offset="0.0035" stop-color="#4AAAFD"/>
<stop offset="1" stop-color="#00DED8"/>
</linearGradient>
<linearGradient id="paint6_linear_10_1590" x1="348.624" y1="228.423" x2="435.04" y2="228.423" gradientUnits="userSpaceOnUse">
<stop offset="0.1035" stop-color="#F6FBFF"/>
<stop offset="0.8866" stop-color="#E9EFFC"/>
</linearGradient>
<linearGradient id="paint7_linear_10_1590" x1="355.015" y1="249.817" x2="426.147" y2="249.817" gradientUnits="userSpaceOnUse">
<stop offset="0.1035" stop-color="#F6FBFF"/>
<stop offset="0.8866" stop-color="#E9EFFC"/>
</linearGradient>
<linearGradient id="paint8_linear_10_1590" x1="355.015" y1="261.657" x2="406.749" y2="261.657" gradientUnits="userSpaceOnUse">
<stop offset="0.1035" stop-color="#F6FBFF"/>
<stop offset="0.8866" stop-color="#E9EFFC"/>
</linearGradient>
<linearGradient id="paint9_linear_10_1590" x1="368.973" y1="216.303" x2="414.691" y2="216.303" gradientUnits="userSpaceOnUse">
<stop offset="0.0048" stop-color="#B68BFF"/>
<stop offset="0.9986" stop-color="#8948FF"/>
</linearGradient>
<linearGradient id="paint10_linear_10_1590" x1="408.181" y1="187.457" x2="414.692" y2="187.457" gradientUnits="userSpaceOnUse">
<stop offset="0.0048" stop-color="#B68BFF"/>
<stop offset="0.9986" stop-color="#8948FF"/>
</linearGradient>
<linearGradient id="paint11_linear_10_1590" x1="368.972" y1="187.567" x2="375.484" y2="187.567" gradientUnits="userSpaceOnUse">
<stop offset="0.0048" stop-color="#B68BFF"/>
<stop offset="0.9986" stop-color="#8948FF"/>
</linearGradient>
<linearGradient id="paint12_linear_10_1590" x1="369.179" y1="170.118" x2="414.485" y2="170.118" gradientUnits="userSpaceOnUse">
<stop offset="0.0048" stop-color="#B68BFF"/>
<stop offset="0.9986" stop-color="#8948FF"/>
</linearGradient>
<linearGradient id="paint13_linear_10_1590" x1="219.509" y1="228.423" x2="305.926" y2="228.423" gradientUnits="userSpaceOnUse">
<stop offset="0.1035" stop-color="#F6FBFF"/>
<stop offset="0.8866" stop-color="#E9EFFC"/>
</linearGradient>
<linearGradient id="paint14_linear_10_1590" x1="225.9" y1="249.817" x2="297.032" y2="249.817" gradientUnits="userSpaceOnUse">
<stop offset="0.1035" stop-color="#F6FBFF"/>
<stop offset="0.8866" stop-color="#E9EFFC"/>
</linearGradient>
<linearGradient id="paint15_linear_10_1590" x1="225.9" y1="261.657" x2="277.635" y2="261.657" gradientUnits="userSpaceOnUse">
<stop offset="0.1035" stop-color="#F6FBFF"/>
<stop offset="0.8866" stop-color="#E9EFFC"/>
</linearGradient>
<linearGradient id="paint16_linear_10_1590" x1="348.112" y1="287.816" x2="381.231" y2="287.816" gradientUnits="userSpaceOnUse">
<stop offset="0.1011" stop-color="#FFDF94"/>
<stop offset="1" stop-color="#FFA200"/>
</linearGradient>
<linearGradient id="paint17_linear_10_1590" x1="348.112" y1="287.817" x2="375.719" y2="287.817" gradientUnits="userSpaceOnUse">
<stop offset="0.1011" stop-color="#FFDF94"/>
<stop offset="1" stop-color="#FFA200"/>
</linearGradient>
<linearGradient id="paint18_linear_10_1590" x1="320.505" y1="282.914" x2="343.086" y2="282.914" gradientUnits="userSpaceOnUse">
<stop offset="0.1011" stop-color="#FFDF94"/>
<stop offset="1" stop-color="#FFA200"/>
</linearGradient>
<linearGradient id="paint19_linear_10_1590" x1="314.992" y1="287.816" x2="348.112" y2="287.816" gradientUnits="userSpaceOnUse">
<stop offset="0.1011" stop-color="#FFDF94"/>
<stop offset="1" stop-color="#FFA200"/>
</linearGradient>
<linearGradient id="paint20_linear_10_1590" x1="344.228" y1="289.67" x2="344.474" y2="297.362" gradientUnits="userSpaceOnUse">
<stop offset="0.1011" stop-color="#FFDF94"/>
<stop offset="1" stop-color="#FFA200"/>
</linearGradient>
<linearGradient id="paint21_linear_10_1590" x1="389.332" y1="363.917" x2="389.138" y2="313.983" gradientUnits="userSpaceOnUse">
<stop offset="0.0048" stop-color="#FF88D6"/>
<stop offset="0.9986" stop-color="#FF16B4"/>
</linearGradient>
<linearGradient id="paint22_linear_10_1590" x1="423.43" y1="310.94" x2="423.378" y2="283.701" gradientUnits="userSpaceOnUse">
<stop offset="0.0048" stop-color="#FF88D6"/>
<stop offset="0.9986" stop-color="#FF16B4"/>
</linearGradient>
<linearGradient id="paint23_linear_10_1590" x1="360.966" y1="349.875" x2="360.966" y2="279.515" gradientUnits="userSpaceOnUse">
<stop offset="0.1011" stop-color="#FFDF94"/>
<stop offset="1" stop-color="#FFA200"/>
</linearGradient>
<linearGradient id="paint24_linear_10_1590" x1="396.996" y1="318.686" x2="397.259" y2="333.179" gradientUnits="userSpaceOnUse">
<stop offset="0.1011" stop-color="#FFDF94"/>
<stop offset="1" stop-color="#FFA200"/>
</linearGradient>
<linearGradient id="paint25_linear_10_1590" x1="403.434" y1="311.663" x2="418.046" y2="311.663" gradientUnits="userSpaceOnUse">
<stop offset="0.1011" stop-color="#FFDF94"/>
<stop offset="1" stop-color="#FFA200"/>
</linearGradient>
<linearGradient id="paint26_linear_10_1590" x1="388.664" y1="320.407" x2="389.866" y2="334.886" gradientUnits="userSpaceOnUse">
<stop offset="0.1011" stop-color="#FFDF94"/>
<stop offset="1" stop-color="#FFA200"/>
</linearGradient>
<linearGradient id="paint27_linear_10_1590" x1="395.234" y1="311.664" x2="403.434" y2="311.664" gradientUnits="userSpaceOnUse">
<stop offset="0.1011" stop-color="#FFDF94"/>
<stop offset="1" stop-color="#FFA200"/>
</linearGradient>
<linearGradient id="paint28_linear_10_1590" x1="404.45" y1="319.718" x2="407.535" y2="333.793" gradientUnits="userSpaceOnUse">
<stop offset="0.1011" stop-color="#FFDF94"/>
<stop offset="1" stop-color="#FFA200"/>
</linearGradient>
<linearGradient id="paint29_linear_10_1590" x1="385.904" y1="311.662" x2="403.434" y2="311.662" gradientUnits="userSpaceOnUse">
<stop offset="0.1011" stop-color="#FFDF94"/>
<stop offset="1" stop-color="#FFA200"/>
</linearGradient>
<linearGradient id="paint30_linear_10_1590" x1="410.709" y1="319.646" x2="410.448" y2="305.764" gradientUnits="userSpaceOnUse">
<stop stop-color="#FFB926"/>
<stop offset="1" stop-color="#FE6325"/>
</linearGradient>
<linearGradient id="paint31_linear_10_1590" x1="434.906" y1="356.663" x2="436.706" y2="314.379" gradientUnits="userSpaceOnUse">
<stop offset="0.0048" stop-color="#B68BFF"/>
<stop offset="0.9986" stop-color="#8948FF"/>
</linearGradient>
<linearGradient id="paint32_linear_10_1590" x1="354.901" y1="302.536" x2="354.894" y2="320.398" gradientUnits="userSpaceOnUse">
<stop offset="0.0048" stop-color="#B68BFF"/>
<stop offset="0.9986" stop-color="#8948FF"/>
</linearGradient>
<linearGradient id="paint33_linear_10_1590" x1="396.498" y1="347.013" x2="410.371" y2="347.013" gradientUnits="userSpaceOnUse">
<stop offset="0.1011" stop-color="#FFDF94"/>
<stop offset="1" stop-color="#FFA200"/>
</linearGradient>
<linearGradient id="paint34_linear_10_1590" x1="411.079" y1="328.765" x2="411.079" y2="319.86" gradientUnits="userSpaceOnUse">
<stop offset="0.0012" stop-color="#FFED15" stop-opacity="0.01"/>
<stop offset="0.6163" stop-color="#FEA415"/>
</linearGradient>
<linearGradient id="paint35_linear_10_1590" x1="411.467" y1="331.089" x2="425.166" y2="331.089" gradientUnits="userSpaceOnUse">
<stop offset="0.1011" stop-color="#FFDF94"/>
<stop offset="1" stop-color="#FFA200"/>
</linearGradient>
<linearGradient id="paint36_linear_10_1590" x1="151.193" y1="275.858" x2="174.936" y2="275.858" gradientUnits="userSpaceOnUse">
<stop offset="0.1011" stop-color="#FFDF94"/>
<stop offset="1" stop-color="#FFA200"/>
</linearGradient>
<linearGradient id="paint37_linear_10_1590" x1="136.865" y1="346.367" x2="194.505" y2="346.367" gradientUnits="userSpaceOnUse">
<stop offset="0.0338" stop-color="#2F7CFF"/>
<stop offset="1" stop-color="#0457F7"/>
</linearGradient>
<linearGradient id="paint38_linear_10_1590" x1="125.958" y1="346.367" x2="183.598" y2="346.367" gradientUnits="userSpaceOnUse">
<stop offset="0.0083" stop-color="#00CAFE"/>
<stop offset="1" stop-color="#0088FA"/>
</linearGradient>
<linearGradient id="paint39_linear_10_1590" x1="105.452" y1="369.463" x2="190.301" y2="369.463" gradientUnits="userSpaceOnUse">
<stop offset="0.0083" stop-color="#00CAFE"/>
<stop offset="1" stop-color="#0088FA"/>
</linearGradient>
<linearGradient id="paint40_linear_10_1590" x1="142.906" y1="275.858" x2="166.65" y2="275.858" gradientUnits="userSpaceOnUse">
<stop offset="0.1011" stop-color="#FFDF94"/>
<stop offset="1" stop-color="#FFA200"/>
</linearGradient>
<linearGradient id="paint41_linear_10_1590" x1="84.0006" y1="266.749" x2="85.7866" y2="318.899" gradientUnits="userSpaceOnUse">
<stop offset="0.1011" stop-color="#FF7638"/>
<stop offset="0.8855" stop-color="#FF3929"/>
</linearGradient>
<linearGradient id="paint42_linear_10_1590" x1="49.7071" y1="331.569" x2="115.685" y2="349.588" gradientUnits="userSpaceOnUse">
<stop offset="0.1011" stop-color="#FFDF94"/>
<stop offset="1" stop-color="#FFA200"/>
</linearGradient>
<linearGradient id="paint43_linear_10_1590" x1="63.1771" y1="285.341" x2="95.3543" y2="361.366" gradientUnits="userSpaceOnUse">
<stop offset="0.1011" stop-color="#FFDF94"/>
<stop offset="1" stop-color="#FFA200"/>
</linearGradient>
<linearGradient id="paint44_linear_10_1590" x1="77.8998" y1="236.048" x2="55.9095" y2="341.769" gradientUnits="userSpaceOnUse">
<stop offset="0.1011" stop-color="#FFDF94"/>
<stop offset="1" stop-color="#FFA200"/>
</linearGradient>
<linearGradient id="paint45_linear_10_1590" x1="134.816" y1="297.421" x2="127.141" y2="261.295" gradientUnits="userSpaceOnUse">
<stop offset="0.1011" stop-color="#FF7638"/>
<stop offset="0.8855" stop-color="#FF3929"/>
</linearGradient>
<linearGradient id="paint46_linear_10_1590" x1="119.602" y1="172.363" x2="101.661" y2="369.446" gradientUnits="userSpaceOnUse">
<stop offset="0.0048" stop-color="#B68BFF"/>
<stop offset="0.9986" stop-color="#8948FF"/>
</linearGradient>
<linearGradient id="paint47_linear_10_1590" x1="-301.051" y1="201.1" x2="-301.456" y2="302.45" gradientUnits="userSpaceOnUse">
<stop offset="0.1023" stop-color="#915758"/>
<stop offset="0.8855" stop-color="#2C090B"/>
</linearGradient>
<linearGradient id="paint48_linear_10_1590" x1="223.321" y1="302.458" x2="284.478" y2="302.458" gradientUnits="userSpaceOnUse">
<stop offset="0.1023" stop-color="#DCDFF8"/>
<stop offset="0.8855" stop-color="#F5F7FE"/>
</linearGradient>
<linearGradient id="paint49_linear_10_1590" x1="293.902" y1="302.458" x2="316.72" y2="302.458" gradientUnits="userSpaceOnUse">
<stop offset="0.1023" stop-color="#DCDFF8"/>
<stop offset="0.8855" stop-color="#F5F7FE"/>
</linearGradient>
<linearGradient id="paint50_linear_10_1590" x1="122.681" y1="196.14" x2="123.179" y2="337.501" gradientUnits="userSpaceOnUse">
<stop offset="0.0048" stop-color="#B68BFF"/>
<stop offset="0.9986" stop-color="#8948FF"/>
</linearGradient>
<linearGradient id="paint51_linear_10_1590" x1="310.055" y1="301.231" x2="326.294" y2="301.231" gradientUnits="userSpaceOnUse">
<stop offset="0.1023" stop-color="#FCADBA"/>
<stop offset="0.8855" stop-color="#FBDAD9"/>
</linearGradient>
<linearGradient id="paint52_linear_10_1590" x1="310.508" y1="273.459" x2="326.739" y2="273.459" gradientUnits="userSpaceOnUse">
<stop offset="0.1011" stop-color="#FF7638"/>
<stop offset="0.8855" stop-color="#FF3929"/>
</linearGradient>
<linearGradient id="paint53_linear_10_1590" x1="286.61" y1="360.482" x2="292.233" y2="353.788" gradientUnits="userSpaceOnUse">
<stop offset="0.1011" stop-color="#FFC0A0"/>
<stop offset="0.8855" stop-color="#FF3513"/>
</linearGradient>
<linearGradient id="paint54_linear_10_1590" x1="408.696" y1="310.081" x2="353.811" y2="180.134" gradientUnits="userSpaceOnUse">
<stop offset="0.0048" stop-color="#FFD6A4"/>
<stop offset="0.9986" stop-color="#FF8734"/>
</linearGradient>
<linearGradient id="paint55_linear_10_1590" x1="295.738" y1="253.58" x2="295.738" y2="250.265" gradientUnits="userSpaceOnUse">
<stop offset="0.0048" stop-color="#F9C491"/>
<stop offset="0.9986" stop-color="#F96F24"/>
</linearGradient>
<linearGradient id="paint56_linear_10_1590" x1="289.409" y1="347.233" x2="310.885" y2="347.233" gradientUnits="userSpaceOnUse">
<stop offset="0.1023" stop-color="#FCADBA"/>
<stop offset="0.8855" stop-color="#FBDAD9"/>
</linearGradient>
<linearGradient id="paint57_linear_10_1590" x1="286.653" y1="325.304" x2="303.273" y2="325.304" gradientUnits="userSpaceOnUse">
<stop offset="0.1011" stop-color="#FF7638"/>
<stop offset="0.8855" stop-color="#FF3929"/>
</linearGradient>
<linearGradient id="paint58_linear_10_1590" x1="298.343" y1="364.211" x2="300.693" y2="355.831" gradientUnits="userSpaceOnUse">
<stop offset="0.1011" stop-color="#FFC0A0"/>
<stop offset="0.8855" stop-color="#FF3513"/>
</linearGradient>
<linearGradient id="paint59_linear_10_1590" x1="320.878" y1="224.827" x2="350.107" y2="164.306" gradientUnits="userSpaceOnUse">
<stop offset="0.1023" stop-color="#FCADBA"/>
<stop offset="0.8855" stop-color="#FBDAD9"/>
</linearGradient>
<linearGradient id="paint60_linear_10_1590" x1="294.681" y1="212.767" x2="317.846" y2="188.546" gradientUnits="userSpaceOnUse">
<stop offset="0.1011" stop-color="#FF7638"/>
<stop offset="0.8855" stop-color="#FF3929"/>
</linearGradient>
<linearGradient id="paint61_linear_10_1590" x1="323.684" y1="176.757" x2="323.533" y2="181.384" gradientUnits="userSpaceOnUse">
<stop offset="0.0048" stop-color="#B68BFF"/>
<stop offset="0.9986" stop-color="#8948FF"/>
</linearGradient>
<linearGradient id="paint62_linear_10_1590" x1="322.087" y1="155.022" x2="304.606" y2="165.366" gradientUnits="userSpaceOnUse">
<stop offset="0.0048" stop-color="#B68BFF"/>
<stop offset="0.9986" stop-color="#8948FF"/>
</linearGradient>
<linearGradient id="paint63_linear_10_1590" x1="314.251" y1="172.738" x2="309" y2="186.734" gradientUnits="userSpaceOnUse">
<stop offset="0.0048" stop-color="#FFD6A4"/>
<stop offset="0.9986" stop-color="#FF8734"/>
</linearGradient>
<linearGradient id="paint64_linear_10_1590" x1="316.77" y1="191.617" x2="316.783" y2="189.88" gradientUnits="userSpaceOnUse">
<stop offset="0.0048" stop-color="#B68BFF"/>
<stop offset="0.9986" stop-color="#8948FF"/>
</linearGradient>
<linearGradient id="paint65_linear_10_1590" x1="299.772" y1="248.166" x2="355.572" y2="230.998" gradientUnits="userSpaceOnUse">
<stop offset="0.1023" stop-color="#FCADBA"/>
<stop offset="0.8855" stop-color="#FBDAD9"/>
</linearGradient>
<linearGradient id="paint66_linear_10_1590" x1="307.791" y1="251.892" x2="352.768" y2="242.677" gradientUnits="userSpaceOnUse">
<stop offset="0.1023" stop-color="#FCADBA"/>
<stop offset="0.8855" stop-color="#FBDAD9"/>
</linearGradient>
<linearGradient id="paint67_linear_10_1590" x1="347.696" y1="291.658" x2="252.18" y2="238.61" gradientUnits="userSpaceOnUse">
<stop offset="0.0048" stop-color="#FFD6A4"/>
<stop offset="0.9986" stop-color="#FF8734"/>
</linearGradient>
<linearGradient id="paint68_linear_10_1590" x1="237.471" y1="279.426" x2="243.514" y2="276.185" gradientUnits="userSpaceOnUse">
<stop offset="0.0048" stop-color="#FFD6A4"/>
<stop offset="0.9986" stop-color="#FF8734"/>
</linearGradient>
<linearGradient id="paint69_linear_10_1590" x1="262.138" y1="199.084" x2="294.018" y2="199.084" gradientUnits="userSpaceOnUse">
<stop offset="0.1023" stop-color="#FCADBA"/>
<stop offset="0.8855" stop-color="#FBDAD9"/>
</linearGradient>
<linearGradient id="paint70_linear_10_1590" x1="268.823" y1="137.699" x2="256.519" y2="171.391" gradientUnits="userSpaceOnUse">
<stop offset="0.0035" stop-color="#008AEE"/>
<stop offset="1" stop-color="#00CFCA"/>
</linearGradient>
<linearGradient id="paint71_linear_10_1590" x1="4.92422" y1="-9.47122" x2="-7.19887" y2="3.34417" gradientUnits="userSpaceOnUse">
<stop offset="0.1023" stop-color="#FCADBA"/>
<stop offset="0.8855" stop-color="#FBDAD9"/>
</linearGradient>
<linearGradient id="paint72_linear_10_1590" x1="289.098" y1="234.284" x2="311.233" y2="178.284" gradientUnits="userSpaceOnUse">
<stop offset="0.0035" stop-color="#008AEE"/>
<stop offset="1" stop-color="#00CFCA"/>
</linearGradient>
<linearGradient id="paint73_linear_10_1590" x1="292.979" y1="105.349" x2="266.397" y2="127.975" gradientUnits="userSpaceOnUse">
<stop offset="0.1023" stop-color="#915758"/>
<stop offset="0.8855" stop-color="#2C090B"/>
</linearGradient>
<linearGradient id="paint74_linear_10_1590" x1="256.663" y1="153.39" x2="256.784" y2="152.802" gradientUnits="userSpaceOnUse">
<stop stop-color="#262C61"/>
<stop offset="1" stop-color="#030319"/>
</linearGradient>
<linearGradient id="paint75_linear_10_1590" x1="265.909" y1="147.966" x2="281.398" y2="152.679" gradientUnits="userSpaceOnUse">
<stop offset="0.1023" stop-color="#FCADBA"/>
<stop offset="0.8855" stop-color="#FBDAD9"/>
</linearGradient>
<linearGradient id="paint76_linear_10_1590" x1="278.242" y1="153.596" x2="289.291" y2="140.184" gradientUnits="userSpaceOnUse">
<stop offset="0.1011" stop-color="#FF7638"/>
<stop offset="0.8855" stop-color="#FF3929"/>
</linearGradient>
<linearGradient id="paint77_linear_10_1590" x1="269.547" y1="162.899" x2="297.066" y2="152.385" gradientUnits="userSpaceOnUse">
<stop offset="0.1023" stop-color="#FCADBA"/>
<stop offset="0.8855" stop-color="#FBDAD9"/>
</linearGradient>
<linearGradient id="paint78_linear_10_1590" x1="289.163" y1="108.226" x2="275.864" y2="127.787" gradientUnits="userSpaceOnUse">
<stop offset="0.1023" stop-color="#915758"/>
<stop offset="0.8855" stop-color="#2C090B"/>
</linearGradient>
<linearGradient id="paint79_linear_10_1590" x1="265.769" y1="158.969" x2="293.707" y2="148.383" gradientUnits="userSpaceOnUse">
<stop offset="0.1023" stop-color="#FCADBA"/>
<stop offset="0.8855" stop-color="#FBDAD9"/>
</linearGradient>
<linearGradient id="paint80_linear_10_1590" x1="309.335" y1="110.561" x2="235.627" y2="110.711" gradientUnits="userSpaceOnUse">
<stop offset="0.1023" stop-color="#FCADBA"/>
<stop offset="0.8855" stop-color="#FBDAD9"/>
</linearGradient>
<linearGradient id="paint81_linear_10_1590" x1="283.435" y1="170.876" x2="235.648" y2="172.461" gradientUnits="userSpaceOnUse">
<stop offset="0.1011" stop-color="#FF7638"/>
<stop offset="0.8855" stop-color="#FF3929"/>
</linearGradient>
<linearGradient id="paint82_linear_10_1590" x1="255.787" y1="134.53" x2="243.025" y2="168.14" gradientUnits="userSpaceOnUse">
<stop offset="0.0035" stop-color="#008AEE"/>
<stop offset="1" stop-color="#00CFCA"/>
</linearGradient>
<linearGradient id="paint83_linear_10_1590" x1="313.544" y1="141.963" x2="301.549" y2="144.458" gradientUnits="userSpaceOnUse">
<stop offset="0.0048" stop-color="#FF88D6"/>
<stop offset="0.9986" stop-color="#FF16B4"/>
</linearGradient>
<linearGradient id="paint84_linear_10_1590" x1="247.808" y1="165.073" x2="231.247" y2="126.458" gradientUnits="userSpaceOnUse">
<stop offset="0.1023" stop-color="#FCADBA"/>
<stop offset="0.8855" stop-color="#FBDAD9"/>
</linearGradient>
<linearGradient id="paint85_linear_10_1590" x1="218.715" y1="162.449" x2="230.688" y2="162.449" gradientUnits="userSpaceOnUse">
<stop offset="0.1011" stop-color="#FF7638"/>
<stop offset="0.8855" stop-color="#FF3929"/>
</linearGradient>
<linearGradient id="paint86_linear_10_1590" x1="240.16" y1="161.979" x2="229.544" y2="129.972" gradientUnits="userSpaceOnUse">
<stop offset="0.1023" stop-color="#FCADBA"/>
<stop offset="0.8855" stop-color="#FBDAD9"/>
</linearGradient>
<linearGradient id="paint87_linear_10_1590" x1="237.341" y1="116.224" x2="224.931" y2="119.699" gradientUnits="userSpaceOnUse">
<stop offset="0.1023" stop-color="#915758"/>
<stop offset="0.8855" stop-color="#2C090B"/>
</linearGradient>
<linearGradient id="paint88_linear_10_1590" x1="227.883" y1="114.154" x2="227.148" y2="114.222" gradientUnits="userSpaceOnUse">
<stop offset="0.0014" stop-color="#FFB65C"/>
<stop offset="0.9609" stop-color="#F65550"/>
</linearGradient>
<linearGradient id="paint89_linear_10_1590" x1="222.327" y1="145.362" x2="239.74" y2="145.362" gradientUnits="userSpaceOnUse">
<stop offset="0.0014" stop-color="#FFB65C"/>
<stop offset="0.9609" stop-color="#F65550"/>
</linearGradient>
<linearGradient id="paint90_linear_10_1590" x1="222.154" y1="164.518" x2="240.642" y2="164.518" gradientUnits="userSpaceOnUse">
<stop offset="0.0035" stop-color="#4A6FFD"/>
<stop offset="1" stop-color="#0093DE"/>
</linearGradient>
<linearGradient id="paint91_linear_10_1590" x1="180.874" y1="191.423" x2="208.18" y2="191.423" gradientUnits="userSpaceOnUse">
<stop offset="0.1023" stop-color="#FCADBA"/>
<stop offset="0.8855" stop-color="#FBDAD9"/>
</linearGradient>
<linearGradient id="paint92_linear_10_1590" x1="160.673" y1="157.343" x2="176.524" y2="157.524" gradientUnits="userSpaceOnUse">
<stop offset="0.1023" stop-color="#915758"/>
<stop offset="0.8855" stop-color="#2C090B"/>
</linearGradient>
<linearGradient id="paint93_linear_10_1590" x1="162.821" y1="156.269" x2="178.672" y2="156.45" gradientUnits="userSpaceOnUse">
<stop offset="0.0035" stop-color="#4A9FFD"/>
<stop offset="1" stop-color="#00D7DE"/>
</linearGradient>
<linearGradient id="paint94_linear_10_1590" x1="163.678" y1="194.058" x2="189.855" y2="194.312" gradientUnits="userSpaceOnUse">
<stop offset="0.1023" stop-color="#FCADBA"/>
<stop offset="0.8855" stop-color="#FBDAD9"/>
</linearGradient>
<linearGradient id="paint95_linear_10_1590" x1="176.771" y1="184.237" x2="186.364" y2="184.237" gradientUnits="userSpaceOnUse">
<stop offset="0.1011" stop-color="#FF7638"/>
<stop offset="0.8855" stop-color="#FF3929"/>
</linearGradient>
<linearGradient id="paint96_linear_10_1590" x1="165.596" y1="306.648" x2="185.456" y2="306.648" gradientUnits="userSpaceOnUse">
<stop offset="0.1023" stop-color="#FCADBA"/>
<stop offset="0.8855" stop-color="#FBDAD9"/>
</linearGradient>
<linearGradient id="paint97_linear_10_1590" x1="168.853" y1="299.844" x2="183.55" y2="299.844" gradientUnits="userSpaceOnUse">
<stop offset="0.1011" stop-color="#FF7638"/>
<stop offset="0.8855" stop-color="#FF3929"/>
</linearGradient>
<linearGradient id="paint98_linear_10_1590" x1="152.218" y1="392.778" x2="246.782" y2="345.316" gradientUnits="userSpaceOnUse">
<stop offset="0.1011" stop-color="#FFA9E1"/>
<stop offset="0.8855" stop-color="#E814FF"/>
</linearGradient>
<linearGradient id="paint99_linear_10_1590" x1="147.703" y1="323.212" x2="189.675" y2="323.212" gradientUnits="userSpaceOnUse">
<stop offset="0.1023" stop-color="#915758"/>
<stop offset="0.8855" stop-color="#2C090B"/>
</linearGradient>
<linearGradient id="paint100_linear_10_1590" x1="111.668" y1="310.14" x2="136.173" y2="310.14" gradientUnits="userSpaceOnUse">
<stop offset="0.1023" stop-color="#FCADBA"/>
<stop offset="0.8855" stop-color="#FBDAD9"/>
</linearGradient>
<linearGradient id="paint101_linear_10_1590" x1="118.517" y1="302.164" x2="130.584" y2="302.164" gradientUnits="userSpaceOnUse">
<stop offset="0.1011" stop-color="#FF7638"/>
<stop offset="0.8855" stop-color="#FF3929"/>
</linearGradient>
<linearGradient id="paint102_linear_10_1590" x1="80.5923" y1="322.387" x2="123.566" y2="322.387" gradientUnits="userSpaceOnUse">
<stop offset="0.1023" stop-color="#915758"/>
<stop offset="0.8855" stop-color="#2C090B"/>
</linearGradient>
<linearGradient id="paint103_linear_10_1590" x1="118.51" y1="298.072" x2="238.808" y2="298.072" gradientUnits="userSpaceOnUse">
<stop offset="0.1011" stop-color="#FFA9E1"/>
<stop offset="0.8855" stop-color="#E814FF"/>
</linearGradient>
<linearGradient id="paint104_linear_10_1590" x1="216.207" y1="260.674" x2="216.99" y2="258.954" gradientUnits="userSpaceOnUse">
<stop offset="0.1011" stop-color="#FF9DE8"/>
<stop offset="0.8855" stop-color="#CC08FF"/>
</linearGradient>
<linearGradient id="paint105_linear_10_1590" x1="192.123" y1="228.571" x2="247.582" y2="228.571" gradientUnits="userSpaceOnUse">
<stop offset="0.0035" stop-color="#4A91FD"/>
<stop offset="1" stop-color="#00C6DE"/>
</linearGradient>
<linearGradient id="paint106_linear_10_1590" x1="128.141" y1="183.453" x2="152.822" y2="317.812" gradientUnits="userSpaceOnUse">
<stop offset="0.0035" stop-color="#4A91FD"/>
<stop offset="1" stop-color="#00C6DE"/>
</linearGradient>
<linearGradient id="paint107_linear_10_1590" x1="178.673" y1="220.6" x2="241.142" y2="220.6" gradientUnits="userSpaceOnUse">
<stop offset="0.0035" stop-color="#4A9FFD"/>
<stop offset="1" stop-color="#00D7DE"/>
</linearGradient>
</defs>
</svg>
