<svg width="35" height="35" viewBox="0 0 35 35" fill="none" xmlns="http://www.w3.org/2000/svg">
<ellipse cx="17.5" cy="17.6131" rx="17.5" ry="17.1957" fill="#EDF1F2"/>
<path d="M18.3738 10.001C18.9941 9.99877 19.6143 10.0045 20.2344 10.0182L20.3993 10.0237C20.5896 10.03 20.7775 10.0378 21.0044 10.0472C21.9088 10.0864 22.5258 10.2182 23.0673 10.4118C23.6282 10.611 24.1008 10.8807 24.5734 11.3167C25.0055 11.7084 25.3399 12.1822 25.5534 12.7053C25.7633 13.2047 25.9061 13.7748 25.9486 14.609C25.9588 14.8176 25.9673 14.9917 25.9741 15.1673L25.9792 15.3194C25.9943 15.8912 26.0008 16.4631 25.9988 17.035L25.9996 17.6199V18.6471C26.0017 19.2192 25.9952 19.7914 25.9801 20.3634L25.975 20.5155C25.9682 20.6912 25.9597 20.8645 25.9495 21.0738C25.907 21.9081 25.7625 22.4773 25.5534 22.9768C25.3406 23.5004 25.0061 23.9746 24.5734 24.3662C24.1484 24.7647 23.6345 25.0732 23.0673 25.2702C22.5258 25.4639 21.9088 25.5956 21.0044 25.6348C20.7775 25.6442 20.5896 25.6521 20.3993 25.6583L20.2344 25.6631C19.6143 25.677 18.9941 25.683 18.3738 25.6811L17.7397 25.6819H16.6271C16.0069 25.6838 15.3867 25.6778 14.7666 25.6638L14.6017 25.6591C14.3999 25.6524 14.1982 25.6445 13.9965 25.6356C13.0922 25.5964 12.4751 25.4631 11.9328 25.2702C11.3657 25.0737 10.8519 24.7651 10.4276 24.3662C9.99498 23.9744 9.66025 23.5002 9.44672 22.9768C9.23678 22.4773 9.09399 21.9081 9.05149 21.0738C9.04202 20.8878 9.03352 20.7017 9.02599 20.5155L9.02174 20.3634C9.00607 19.7914 8.99899 19.2192 9.00049 18.6471V17.035C8.99812 16.4631 9.00435 15.8912 9.01919 15.3194L9.02514 15.1673C9.03194 14.9917 9.04044 14.8176 9.05064 14.609C9.09314 13.774 9.23593 13.2055 9.44587 12.7053C9.65952 12.182 9.99491 11.7083 10.4284 11.3174C10.8525 10.9181 11.3659 10.6091 11.9328 10.4118C12.4751 10.2182 13.0913 10.0864 13.9965 10.0472L14.6017 10.0237L14.7666 10.0198C15.3864 10.0053 16.0063 9.9988 16.6263 10.0002L18.3738 10.001ZM17.5001 13.9214C16.937 13.914 16.3779 14.01 15.8554 14.2037C15.3328 14.3974 14.8572 14.685 14.4562 15.0497C14.0552 15.4145 13.7368 15.8491 13.5194 16.3283C13.3021 16.8076 13.1902 17.3219 13.1902 17.8414C13.1902 18.3609 13.3021 18.8752 13.5194 19.3545C13.7368 19.8337 14.0552 20.2684 14.4562 20.6331C14.8572 20.9978 15.3328 21.2854 15.8554 21.4791C16.3779 21.6728 16.937 21.7688 17.5001 21.7614C18.6272 21.7614 19.7081 21.3484 20.5051 20.6132C21.3021 19.878 21.7498 18.8808 21.7498 17.841C21.7498 16.8013 21.3021 15.8041 20.5051 15.0689C19.7081 14.3336 18.6272 13.9214 17.5001 13.9214ZM17.5001 15.4896C17.8388 15.4838 18.1753 15.5404 18.4901 15.6559C18.8048 15.7715 19.0915 15.9438 19.3332 16.1627C19.575 16.3816 19.767 16.6428 19.8982 16.931C20.0293 17.2191 20.0968 17.5285 20.0969 17.841C20.097 18.1535 20.0295 18.4629 19.8985 18.7511C19.7675 19.0393 19.5755 19.3006 19.3338 19.5195C19.0921 19.7385 18.8056 19.9109 18.4909 20.0266C18.1762 20.1423 17.8396 20.1989 17.5009 20.1933C16.8246 20.1933 16.1761 19.9455 15.6979 19.5043C15.2197 19.0632 14.951 18.4649 14.951 17.841C14.951 17.2172 15.2197 16.6189 15.6979 16.1777C16.1761 15.7366 16.8246 15.4888 17.5009 15.4888L17.5001 15.4896ZM21.9623 12.7453C21.6881 12.7554 21.4288 12.863 21.2387 13.0455C21.0486 13.2281 20.9424 13.4714 20.9424 13.7246C20.9424 13.9777 21.0486 14.2211 21.2387 14.4036C21.4288 14.5862 21.6881 14.6938 21.9623 14.7039C22.2441 14.7039 22.5143 14.6006 22.7136 14.4168C22.9128 14.233 23.0248 13.9837 23.0248 13.7238C23.0248 13.4639 22.9128 13.2146 22.7136 13.0308C22.5143 12.847 22.2441 12.7437 21.9623 12.7437V12.7453Z" fill="#267FBB"/>
</svg>
