<svg width="14" height="10" viewBox="0 0 14 10" fill="none" xmlns="http://www.w3.org/2000/svg">
<path fill-rule="evenodd" clip-rule="evenodd" d="M8.96767 2.469C8.75799 2.34008 8.58813 2.15559 8.47693 1.936C8.36572 1.71641 8.31752 1.47031 8.33767 1.225L7 0.99L7.11533 0.333334L8.56133 0.587334C8.68335 0.406368 8.84797 0.25816 9.04071 0.155745C9.23345 0.0533301 9.44841 -0.000152853 9.66667 3.28119e-07H10.795C10.9083 3.28119e-07 11 0.0916669 11 0.205V2.46167C11 2.575 10.908 2.66667 10.795 2.66667H10.6667V5.41667C11.1912 5.26637 11.7532 5.31953 12.2403 5.56554C12.7273 5.81155 13.1036 6.23228 13.294 6.74367C13.398 7.02367 13.2867 7.27933 13.0957 7.43167C13.1121 7.87421 12.9679 8.30776 12.6896 8.65223C12.4113 8.9967 12.0177 9.22881 11.5816 9.30569C11.1455 9.38257 10.6963 9.29902 10.3169 9.07047C9.93763 8.84193 9.65384 8.48383 9.518 8.06233C9.33767 8.00167 9.181 7.86567 9.12167 7.66667H5.32633C5.28542 8.12271 5.07534 8.54693 4.73742 8.85589C4.3995 9.16486 3.95821 9.33619 3.50033 9.33619C3.04246 9.33619 2.60116 9.16486 2.26324 8.85589C1.92532 8.54693 1.71525 8.12271 1.67433 7.66667H0.156667C0.13666 7.66724 0.116736 7.66387 0.0980323 7.65675C0.079329 7.64962 0.0622135 7.63888 0.047664 7.62513C0.0331145 7.61139 0.0214162 7.59491 0.0132378 7.57664C0.00505935 7.55837 0.000561031 7.53867 0 7.51867C0 6.34 0.675667 5.311 1.68 4.76C1.67116 4.72968 1.66667 4.69825 1.66667 4.66667V3.66667C1.66667 3.40145 1.77202 3.1471 1.95956 2.95956C2.1471 2.77202 2.40145 2.66667 2.66667 2.66667H5.66667C5.93188 2.66667 6.18624 2.77202 6.37377 2.95956C6.56131 3.1471 6.66667 3.40145 6.66667 3.66667V4.66667C6.66667 4.75507 6.63155 4.83986 6.56904 4.90237C6.50652 4.96488 6.42174 5 6.33333 5V5.33333H8.41333L8.96767 2.469ZM9 1.33333C9 1.15652 9.07024 0.986954 9.19526 0.861929C9.32029 0.736905 9.48986 0.666667 9.66667 0.666667H10.3333V2H9.66667C9.48986 2 9.32029 1.92976 9.19526 1.80474C9.07024 1.67971 9 1.51014 9 1.33333ZM8.284 6H6.33333V7H8.09067L8.284 6ZM8.76967 7H9.155C9.27541 6.49162 9.57551 6.0439 10 5.73933V2.66667H9.60833L8.76967 7ZM10.2197 8.022C10.3321 8.24683 10.5142 8.42933 10.7388 8.54234C10.9633 8.65534 11.2184 8.69282 11.4659 8.64918C11.7135 8.60553 11.9404 8.48311 12.1128 8.30013C12.2852 8.11716 12.3939 7.8834 12.4227 7.63367L10.2197 8.022ZM2.33333 3.66667C2.33333 3.57826 2.36845 3.49348 2.43096 3.43096C2.49348 3.36845 2.57826 3.33333 2.66667 3.33333H5.66667C5.75507 3.33333 5.83986 3.36845 5.90237 3.43096C5.96488 3.49348 6 3.57826 6 3.66667V4.33333H2.33333V3.66667ZM0.724667 7C0.978 5.87833 2.03767 5 3.362 5H5.66667V6.98933C5.65587 6.99693 5.64285 7.00068 5.62967 7H0.724667ZM4.53967 7.67433C4.58167 7.67567 4.61933 7.677 4.653 7.67867C4.61049 7.95397 4.47087 8.20497 4.2594 8.38629C4.04793 8.56761 3.77856 8.66728 3.5 8.66728C3.22144 8.66728 2.95207 8.56761 2.7406 8.38629C2.52913 8.20497 2.38951 7.95397 2.347 7.67867C2.38067 7.677 2.41833 7.67533 2.46033 7.67433C2.70567 7.66667 3.03667 7.66667 3.5 7.66667C3.963 7.66667 4.29433 7.66667 4.54 7.67433H4.53967ZM12.1237 6.271C11.9041 6.11719 11.6472 6.02505 11.3799 6.00418C11.1126 5.98331 10.8446 6.03446 10.6038 6.15232C10.363 6.27018 10.1581 6.45044 10.0106 6.67432C9.86309 6.89821 9.77828 7.15755 9.765 7.42533L12.6457 6.91733C12.536 6.65692 12.3551 6.43309 12.1237 6.271Z" fill="#818181"/>
</svg>
