<svg width="28" height="24" viewBox="0 0 28 24" fill="none" xmlns="http://www.w3.org/2000/svg">
<path d="M21.9148 13.5652C21.9148 13.978 21.7924 14.3815 21.5631 14.7247C21.3337 15.0679 21.0078 15.3354 20.6265 15.4933C20.2451 15.6513 19.8255 15.6926 19.4207 15.6121C19.0158 15.5315 18.644 15.3328 18.3521 15.0409C18.0602 14.7491 17.8615 14.3772 17.781 13.9724C17.7004 13.5675 17.7418 13.1479 17.8997 12.7666C18.0577 12.3852 18.3252 12.0593 18.6684 11.83C19.0116 11.6007 19.415 11.4783 19.8278 11.4783C20.3813 11.4783 20.9121 11.6981 21.3035 12.0895C21.6949 12.4809 21.9148 13.0117 21.9148 13.5652ZM27.1322 9.3913V19.8261C27.1322 20.9331 26.6924 21.9947 25.9096 22.7775C25.1269 23.5602 24.0652 24 22.9582 24H4.17564C3.06865 24 2.007 23.5602 1.22424 22.7775C0.441476 21.9947 0.00172547 20.9331 0.00172547 19.8261V4.29391C-0.0143278 3.73577 0.0817703 3.18008 0.28433 2.65975C0.486889 2.13941 0.791792 1.66501 1.18099 1.26463C1.57018 0.864245 2.03575 0.546021 2.55014 0.328798C3.06452 0.111575 3.61727 -0.000230457 4.17564 3.56643e-07H21.393C21.8081 3.56643e-07 22.2063 0.164907 22.4998 0.458442C22.7933 0.751977 22.9582 1.1501 22.9582 1.56522C22.9582 1.98034 22.7933 2.37846 22.4998 2.67199C22.2063 2.96553 21.8081 3.13044 21.393 3.13044H4.17564C4.03571 3.13036 3.89719 3.15843 3.76832 3.21298C3.63946 3.26753 3.52289 3.34744 3.42553 3.44795C3.32818 3.54847 3.25204 3.66754 3.20164 3.79808C3.15124 3.92862 3.12761 4.06797 3.13216 4.20783V4.21826C3.15408 4.49455 3.28087 4.75198 3.48654 4.93776C3.69221 5.12354 3.96116 5.22359 4.23825 5.21739H22.9582C24.0652 5.21739 25.1269 5.65714 25.9096 6.4399C26.6924 7.22266 27.1322 8.28431 27.1322 9.3913ZM24.0017 9.3913C24.0017 9.11456 23.8918 8.84914 23.6961 8.65345C23.5004 8.45776 23.235 8.34783 22.9582 8.34783H4.23825C3.86507 8.34798 3.49339 8.30065 3.13216 8.20696V19.8261C3.13216 20.1028 3.2421 20.3682 3.43779 20.5639C3.63348 20.7596 3.89889 20.8696 4.17564 20.8696H22.9582C23.235 20.8696 23.5004 20.7596 23.6961 20.5639C23.8918 20.3682 24.0017 20.1028 24.0017 19.8261V9.3913Z" fill="#E84B3A"/>
</svg>
